<svg xmlns="http://www.w3.org/2000/svg" xmlns:xlink="http://www.w3.org/1999/xlink" width="500" zoomAndPan="magnify" viewBox="0 0 375 374.999991" height="500" preserveAspectRatio="xMidYMid meet" version="1.0"><path fill="#4269c4" d="M 328.519531 241.039062 C 327.316406 255.226562 316.363281 266.625 302.234375 268.324219 C 215.59375 278.730469 128.957031 278.730469 42.316406 268.324219 C 28.1875 266.625 17.179688 255.226562 15.976562 241.039062 C 10.71875 179.019531 10.828125 116.613281 15.976562 53.878906 C 17.179688 39.304688 28.679688 27.742188 43.25 26.429688 C 129.230469 18.761719 215.265625 18.761719 301.300781 26.429688 C 315.871094 27.742188 327.371094 39.304688 328.578125 53.878906 C 333.722656 116.613281 333.777344 179.019531 328.519531 241.039062 Z M 328.519531 241.039062 " fill-opacity="1" fill-rule="nonzero"/><path fill="#ffffff" d="M 172.277344 226.765625 C 131.613281 226.765625 90.371094 224.609375 49.707031 220.355469 C 43.605469 219.71875 38.800781 215.386719 38.28125 210.054688 C 33.394531 159.894531 33.398438 108.167969 38.285156 56.320312 C 38.804688 50.820312 43.789062 46.460938 50.132812 45.964844 C 90.628906 42.820312 131.722656 41.222656 172.253906 41.222656 C 212.785156 41.222656 253.890625 42.820312 294.433594 45.964844 C 300.757812 46.460938 305.742188 50.820312 306.265625 56.328125 C 311.136719 107.980469 311.121094 159.707031 306.214844 210.058594 C 305.695312 215.390625 300.914062 219.722656 294.84375 220.355469 C 254.179688 224.609375 212.9375 226.765625 172.277344 226.765625 Z M 172.277344 226.765625 " fill-opacity="1" fill-rule="nonzero"/><path fill="#d1dafe" d="M 309.351562 163.511719 C 308.75 179.128906 307.710938 194.6875 306.230469 210.082031 C 305.683594 215.394531 300.917969 219.722656 294.839844 220.382812 C 254.203125 224.601562 212.964844 226.792969 172.277344 226.792969 C 131.585938 226.792969 90.347656 224.601562 49.710938 220.382812 C 43.632812 219.722656 38.8125 215.394531 38.265625 210.082031 C 37.003906 196.714844 36.019531 183.179688 35.417969 169.59375 C 68.386719 193.375 115.757812 208.273438 168.386719 208.273438 C 225.398438 208.273438 276.21875 190.796875 309.351562 163.511719 Z M 309.351562 163.511719 " fill-opacity="1" fill-rule="nonzero"/><path fill="#d1dafe" d="M 39.453125 241.148438 C 61.738281 241.167969 83.875 241.691406 105.988281 242.023438 C 128.101562 242.292969 150.179688 242.628906 172.261719 242.519531 C 194.34375 242.617188 216.417969 242.28125 238.535156 242.007812 C 260.648438 241.667969 282.78125 241.152344 305.070312 241.148438 C 283.246094 245.691406 261.148438 248.601562 238.972656 250.546875 C 216.800781 252.566406 194.527344 253.375 172.261719 253.472656 C 149.996094 253.363281 127.726562 252.550781 105.550781 250.53125 C 83.378906 248.578125 61.28125 245.675781 39.453125 241.148438 Z M 39.453125 241.148438 " fill-opacity="1" fill-rule="nonzero"/><path fill="#b53016" d="M 182.914062 242.484375 C 179.363281 242.484375 175.8125 242.535156 172.261719 242.519531 C 150.179688 242.628906 128.101562 242.292969 105.988281 242.023438 C 83.875 241.691406 61.738281 241.167969 39.453125 241.148438 C 61.28125 245.675781 83.378906 248.578125 105.550781 250.53125 C 127.726562 252.550781 149.996094 253.363281 172.261719 253.472656 C 175.8125 253.457031 179.363281 253.390625 182.914062 253.335938 Z M 182.914062 242.484375 " fill-opacity="1" fill-rule="nonzero"/><path fill="#b53016" d="M 194.214844 247.996094 C 194.214844 248.785156 194.136719 249.566406 193.984375 250.335938 C 193.832031 251.109375 193.601562 251.859375 193.300781 252.585938 C 193 253.3125 192.632812 254.003906 192.195312 254.65625 C 191.757812 255.3125 191.261719 255.917969 190.703125 256.472656 C 190.148438 257.03125 189.542969 257.527344 188.890625 257.964844 C 188.234375 258.402344 187.542969 258.773438 186.816406 259.074219 C 186.089844 259.375 185.339844 259.601562 184.570312 259.753906 C 183.796875 259.910156 183.019531 259.984375 182.230469 259.984375 C 181.445312 259.984375 180.664062 259.910156 179.894531 259.753906 C 179.121094 259.601562 178.371094 259.375 177.644531 259.074219 C 176.917969 258.773438 176.230469 258.402344 175.574219 257.964844 C 174.921875 257.527344 174.316406 257.03125 173.757812 256.472656 C 173.203125 255.917969 172.707031 255.3125 172.269531 254.65625 C 171.832031 254.003906 171.460938 253.3125 171.160156 252.585938 C 170.859375 251.859375 170.632812 251.109375 170.480469 250.335938 C 170.324219 249.566406 170.25 248.785156 170.25 247.996094 C 170.25 247.210938 170.324219 246.429688 170.480469 245.660156 C 170.632812 244.886719 170.859375 244.136719 171.160156 243.410156 C 171.460938 242.683594 171.832031 241.992188 172.269531 241.335938 C 172.707031 240.683594 173.203125 240.078125 173.757812 239.519531 C 174.316406 238.964844 174.921875 238.46875 175.574219 238.03125 C 176.230469 237.59375 176.917969 237.222656 177.644531 236.921875 C 178.371094 236.621094 179.121094 236.394531 179.894531 236.242188 C 180.664062 236.085938 181.445312 236.011719 182.230469 236.011719 C 183.019531 236.011719 183.796875 236.085938 184.570312 236.242188 C 185.339844 236.394531 186.089844 236.621094 186.816406 236.921875 C 187.542969 237.222656 188.234375 237.59375 188.890625 238.03125 C 189.542969 238.46875 190.148438 238.964844 190.703125 239.519531 C 191.261719 240.078125 191.757812 240.683594 192.195312 241.335938 C 192.632812 241.992188 193 242.683594 193.300781 243.410156 C 193.601562 244.136719 193.832031 244.886719 193.984375 245.660156 C 194.136719 246.429688 194.214844 247.210938 194.214844 247.996094 Z M 194.214844 247.996094 " fill-opacity="1" fill-rule="nonzero"/><path fill="#4269c4" d="M 207.789062 146.496094 C 191.34375 159.980469 173.628906 171.160156 154.480469 179.847656 C 145.238281 184.117188 134.855469 177.886719 133.875 167.867188 C 131.800781 145.375 132.007812 123.09375 134.832031 101.183594 C 136.15625 90.882812 147.0625 85.167969 156.152344 90.066406 C 173.363281 99.375 190.367188 110.96875 207.496094 124.859375 C 214.289062 130.375 214.4375 141.039062 207.789062 146.496094 Z M 207.789062 146.496094 " fill-opacity="1" fill-rule="nonzero"/><path fill="#255299" d="M 207.789062 146.496094 C 191.34375 159.980469 173.628906 171.160156 154.480469 179.847656 C 145.238281 184.117188 134.855469 177.886719 133.875 167.867188 C 133.460938 163.273438 133.050781 158.679688 132.960938 154.085938 C 161.628906 154.074219 187.082031 140.578125 201.195312 119.832031 C 203.296875 121.507812 205.398438 123.183594 207.496094 124.859375 C 214.289062 130.375 214.4375 141.039062 207.789062 146.496094 Z M 207.789062 146.496094 " fill-opacity="1" fill-rule="nonzero"/><path fill="#ffcecf" d="M 336.019531 284.324219 L 276.699219 314.402344 L 201.074219 255.832031 C 200.332031 255.214844 199.996094 254.527344 199.734375 253.695312 C 199.316406 252.363281 199.492188 250.785156 200.484375 249.679688 C 208.296875 240.222656 222.1875 239.269531 231.273438 247.265625 L 246.496094 260.644531 L 205.136719 172.488281 C 202.917969 167.941406 204.335938 162.5625 208.503906 159.730469 C 209.320312 159.230469 210.117188 158.859375 210.835938 158.632812 C 215.273438 157.238281 220.144531 159.179688 222.570312 163.417969 L 249.441406 213.347656 L 249.601562 213.664062 C 249.269531 212.609375 248.980469 211.484375 248.757812 210.394531 L 248.707031 210.230469 C 248.078125 207.257812 247.332031 202.738281 247.660156 198.554688 C 247.675781 197.820312 247.761719 197.121094 247.863281 196.480469 C 248.40625 192.777344 249.992188 189.476562 253.363281 187.988281 C 262.121094 184.082031 269.25 196.894531 272.574219 204.195312 L 272.628906 204.363281 C 272.753906 204.566406 272.824219 204.789062 272.929688 204.9375 C 272.496094 203.550781 271.953125 202.015625 271.523438 200.261719 C 271.332031 199.652344 271.195312 199.023438 271.058594 198.398438 C 270.59375 196.714844 270.253906 195.054688 269.953125 193.320312 C 269.832031 192.933594 269.765625 192.527344 269.757812 192.105469 C 269.566406 190.335938 269.558594 188.753906 269.984375 187.585938 C 270.023438 187.328125 270.140625 187.109375 270.253906 186.890625 L 270.480469 186.457031 C 280.601562 172.125 291.011719 187.441406 293.898438 195.671875 C 294.195312 196.433594 294.40625 197.097656 294.542969 197.726562 C 294.320312 196.820312 294.152344 195.898438 294.019531 195.089844 C 293.386719 191.324219 293.546875 188.535156 294.265625 186.359375 C 294.558594 185.167969 295.109375 184.203125 295.769531 183.386719 C 296.914062 181.992188 298.363281 181.171875 299.914062 180.683594 C 304.8125 179.207031 310.023438 181.65625 313.128906 185.734375 C 334.570312 214.28125 331.136719 246.433594 336.019531 284.324219 Z M 336.019531 284.324219 " fill-opacity="1" fill-rule="nonzero"/><path fill="#d1dafe" d="M 344.183594 303.824219 L 287.773438 331 C 284.546875 332.535156 280.710938 331.167969 279.121094 327.988281 L 274.414062 318.125 C 272.824219 314.894531 274.195312 311.058594 277.425781 309.46875 L 333.832031 282.292969 C 337.007812 280.761719 340.898438 282.074219 342.429688 285.308594 L 347.195312 295.167969 C 348.730469 298.402344 347.414062 302.238281 344.183594 303.824219 Z M 344.183594 303.824219 " fill-opacity="1" fill-rule="nonzero"/><path fill="#aec46e" d="M 359.628906 320.210938 L 291.007812 353.300781 C 287.71875 354.886719 283.832031 353.519531 282.242188 350.234375 L 273.261719 331.601562 C 271.675781 328.371094 273.042969 324.429688 276.332031 322.890625 L 344.949219 289.800781 C 348.238281 288.210938 352.125 289.582031 353.714844 292.867188 L 362.695312 311.496094 C 364.226562 314.730469 362.859375 318.671875 359.628906 320.210938 Z M 359.628906 320.210938 " fill-opacity="1" fill-rule="nonzero"/><path fill="#617f4d" d="M 359.300781 320.371094 L 291.335938 353.136719 C 288.597656 354.453125 285.367188 353.792969 283.285156 351.65625 C 294.128906 348.097656 306.449219 341.847656 318.445312 333.410156 C 335.640625 321.195312 348.511719 306.894531 354.535156 294.675781 L 362.53125 311.113281 C 364.175781 314.621094 362.695312 318.730469 359.300781 320.371094 Z M 359.300781 320.371094 " fill-opacity="1" fill-rule="nonzero"/><path fill="#fea9ad" d="M 264.789062 243.441406 C 259.222656 235.992188 255.269531 227.847656 251.757812 219.566406 C 250.929688 217.511719 250.160156 215.441406 249.441406 213.347656 L 249.601562 213.664062 C 249.269531 212.609375 248.980469 211.484375 248.757812 210.394531 L 248.707031 210.230469 C 248.078125 207.257812 247.332031 202.738281 247.660156 198.554688 C 251.433594 204.558594 254.390625 210.882812 257.144531 217.328125 C 260.507812 225.714844 263.480469 234.226562 264.789062 243.441406 Z M 264.789062 243.441406 " fill-opacity="1" fill-rule="nonzero"/><path fill="#fea9ad" d="M 287.164062 236.722656 C 281.953125 229.035156 278.441406 220.757812 275.246094 212.316406 C 274.355469 209.671875 273.464844 207.027344 272.628906 204.363281 L 272.574219 204.195312 C 272.269531 203.105469 271.996094 201.980469 271.707031 200.867188 C 271.648438 200.648438 271.578125 200.488281 271.523438 200.261719 C 271.332031 199.652344 271.195312 199.023438 271.058594 198.398438 C 270.59375 196.714844 270.253906 195.054688 269.953125 193.320312 C 269.832031 192.933594 269.765625 192.527344 269.757812 192.105469 C 269.566406 190.335938 269.558594 188.753906 269.984375 187.585938 C 274.5625 194.796875 277.84375 202.542969 280.71875 210.351562 C 283.691406 218.863281 286.277344 227.496094 287.164062 236.722656 Z M 287.164062 236.722656 " fill-opacity="1" fill-rule="nonzero"/><path fill="#fea9ad" d="M 309.660156 232.519531 C 304.449219 224.835938 300.917969 216.5 297.796875 208.097656 C 296.398438 204.027344 295.035156 199.886719 293.898438 195.671875 C 294.195312 196.433594 294.40625 197.097656 294.542969 197.726562 C 294.320312 196.820312 294.152344 195.898438 294.019531 195.089844 C 293.386719 191.324219 293.546875 188.535156 294.265625 186.359375 C 297.957031 192.695312 300.722656 199.378906 303.253906 206.078125 C 306.226562 214.589844 308.757812 223.238281 309.660156 232.519531 Z M 309.660156 232.519531 " fill-opacity="1" fill-rule="nonzero"/><path fill="#b53016" d="M 26.1875 353.664062 C 19.210938 353.195312 13.347656 347.859375 12.644531 340.878906 C 11.882812 334.015625 11.882812 327.15625 12.644531 320.292969 C 13.347656 313.375 19.210938 308.035156 26.128906 307.566406 C 64 305.160156 102.925781 305.394531 142.847656 307.859375 C 146.894531 308.09375 149.589844 312.140625 148.476562 316.070312 C 145.664062 325.746094 145.664062 335.484375 148.476562 345.21875 C 149.589844 349.148438 146.949219 353.136719 142.90625 353.429688 C 103.980469 356.007812 65.113281 356.070312 26.1875 353.664062 Z M 26.1875 353.664062 " fill-opacity="1" fill-rule="nonzero"/><path fill="#ffffff" d="M 28.589844 347.15625 C 24.546875 346.921875 21.203125 343.753906 20.792969 339.941406 C 20.441406 336.773438 20.324219 333.664062 20.324219 330.617188 C 20.324219 327.507812 20.441406 324.398438 20.792969 321.289062 C 21.203125 317.417969 24.546875 314.371094 28.589844 314.074219 C 63.527344 311.847656 101.046875 311.964844 140.148438 314.371094 C 140.382812 314.371094 140.503906 314.664062 140.503906 314.898438 C 139.738281 317.59375 139.152344 320.234375 138.804688 322.933594 C 138.742188 323.285156 138.683594 323.636719 138.625 324.046875 C 138.335938 326.21875 138.21875 328.445312 138.21875 330.617188 C 138.21875 332.84375 138.335938 335.074219 138.683594 337.242188 C 138.683594 337.652344 138.742188 338.003906 138.804688 338.359375 C 139.152344 340.996094 139.738281 343.636719 140.503906 346.214844 L 140.503906 346.390625 C 140.503906 346.566406 140.445312 346.921875 140.148438 346.921875 C 103.277344 349.382812 65.757812 349.441406 28.589844 347.15625 Z M 28.589844 347.15625 " fill-opacity="1" fill-rule="nonzero"/><path fill="#d1dafe" d="M 88.09375 326.453125 C 69.625 326.335938 51.101562 325.804688 32.632812 323.519531 C 51.101562 321.171875 69.625 320.644531 88.09375 320.585938 C 105.035156 320.644531 121.917969 321.054688 138.804688 322.933594 C 138.742188 323.285156 138.683594 323.636719 138.625 324.046875 C 121.800781 325.921875 104.976562 326.335938 88.09375 326.453125 Z M 88.09375 326.453125 " fill-opacity="1" fill-rule="nonzero"/><path fill="#d1dafe" d="M 88.09375 340.703125 C 69.625 340.644531 51.101562 340.117188 32.632812 337.769531 C 51.101562 335.484375 69.625 334.957031 88.09375 334.898438 C 104.976562 334.957031 121.859375 335.367188 138.683594 337.242188 C 138.683594 337.652344 138.742188 338.003906 138.804688 338.359375 C 121.917969 340.234375 105.035156 340.644531 88.09375 340.703125 Z M 88.09375 340.703125 " fill-opacity="1" fill-rule="nonzero"/><path fill="#fbad3e" d="M 144.578125 304.128906 C 151.558594 303.660156 157.421875 298.320312 158.125 291.34375 C 158.886719 284.480469 158.886719 277.617188 158.125 270.757812 C 157.421875 263.835938 151.558594 258.5 144.640625 258.03125 C 106.769531 255.625 67.84375 255.859375 27.917969 258.324219 C 23.875 258.558594 21.179688 262.605469 22.292969 266.535156 C 25.105469 276.210938 25.105469 285.945312 22.292969 295.683594 C 21.179688 299.613281 23.816406 303.601562 27.863281 303.894531 C 66.789062 306.472656 105.65625 306.535156 144.578125 304.128906 Z M 144.578125 304.128906 " fill-opacity="1" fill-rule="nonzero"/><path fill="#ffffff" d="M 142.179688 297.617188 C 146.222656 297.382812 149.5625 294.214844 149.976562 290.40625 C 150.328125 287.238281 150.441406 284.128906 150.441406 281.078125 C 150.441406 277.972656 150.328125 274.863281 149.976562 271.753906 C 149.5625 267.882812 146.222656 264.832031 142.179688 264.539062 C 107.238281 262.3125 69.71875 262.429688 30.617188 264.832031 C 30.382812 264.832031 30.261719 265.128906 30.261719 265.363281 C 31.027344 268.058594 31.613281 270.699219 31.964844 273.394531 C 32.023438 273.75 32.082031 274.101562 32.140625 274.511719 C 32.433594 276.679688 32.550781 278.910156 32.550781 281.078125 C 32.550781 283.308594 32.433594 285.535156 32.082031 287.707031 C 32.082031 288.117188 32.023438 288.46875 31.964844 288.820312 C 31.613281 291.460938 31.027344 294.097656 30.261719 296.679688 L 30.261719 296.855469 C 30.261719 297.03125 30.324219 297.382812 30.617188 297.382812 C 67.488281 299.847656 105.007812 299.90625 142.179688 297.617188 Z M 142.179688 297.617188 " fill-opacity="1" fill-rule="nonzero"/><path fill="#d1dafe" d="M 82.675781 276.914062 C 101.140625 276.796875 119.664062 276.269531 138.132812 273.984375 C 119.664062 271.636719 101.140625 271.109375 82.675781 271.050781 C 65.734375 271.109375 48.847656 271.519531 31.964844 273.394531 C 32.023438 273.75 32.082031 274.101562 32.140625 274.511719 C 48.96875 276.386719 65.792969 276.796875 82.675781 276.914062 Z M 82.675781 276.914062 " fill-opacity="1" fill-rule="nonzero"/><path fill="#d1dafe" d="M 82.675781 291.167969 C 101.140625 291.109375 119.664062 290.578125 138.132812 288.234375 C 119.664062 285.945312 101.140625 285.417969 82.675781 285.359375 C 65.792969 285.417969 48.90625 285.832031 32.082031 287.707031 C 32.082031 288.117188 32.023438 288.46875 31.964844 288.820312 C 48.847656 290.695312 65.734375 291.109375 82.675781 291.167969 Z M 82.675781 291.167969 " fill-opacity="1" fill-rule="nonzero"/><path fill="#e0860e" d="M 294.074219 80.292969 C 294.378906 83.617188 296.886719 86.28125 300.164062 86.945312 C 301.59375 87.253906 302.976562 87.511719 304.410156 87.714844 L 304.410156 93.910156 C 304.410156 96.625 307.6875 98.058594 309.628906 96.113281 L 315.824219 90.070312 C 316.4375 89.507812 317.257812 89.203125 318.125 89.25 C 329.285156 89.917969 340.542969 88.996094 351.800781 86.742188 C 354.769531 86.179688 357.074219 83.773438 357.535156 80.804688 C 359.886719 66.570312 359.785156 52.691406 357.585938 39.074219 C 357.074219 36.003906 354.617188 33.546875 351.597656 33.03125 C 334.8125 30.21875 317.664062 30.164062 300.214844 32.980469 C 296.886719 33.492188 294.328125 36.257812 294.019531 39.585938 C 292.894531 52.898438 292.894531 66.464844 294.074219 80.292969 Z M 294.074219 80.292969 " fill-opacity="1" fill-rule="nonzero"/><path fill="#fbad3e" d="M 287.726562 80.894531 C 288.03125 84.222656 290.539062 86.886719 293.816406 87.550781 C 295.25 87.859375 296.628906 88.117188 298.0625 88.320312 L 298.0625 94.515625 C 298.0625 97.230469 301.339844 98.664062 303.285156 96.714844 L 309.476562 90.675781 C 310.089844 90.109375 310.910156 89.804688 311.777344 89.855469 C 322.9375 90.519531 334.195312 89.601562 345.457031 87.347656 C 348.425781 86.785156 350.726562 84.378906 351.1875 81.410156 C 353.542969 67.175781 353.4375 53.296875 351.238281 39.679688 C 350.726562 36.609375 348.269531 34.148438 345.25 33.636719 C 328.464844 30.824219 311.320312 30.769531 293.867188 33.585938 C 290.539062 34.097656 287.980469 36.863281 287.675781 40.191406 C 286.546875 53.503906 286.546875 67.070312 287.726562 80.894531 Z M 287.726562 80.894531 " fill-opacity="1" fill-rule="nonzero"/><path fill="#fa990e" d="M 286.855469 60.777344 C 286.855469 67.429688 287.113281 74.085938 287.726562 80.894531 C 288.03125 84.222656 290.539062 86.886719 293.816406 87.550781 C 295.25 87.859375 296.628906 88.117188 298.0625 88.320312 L 298.0625 94.515625 C 298.0625 97.230469 301.339844 98.664062 303.285156 96.714844 L 309.476562 90.675781 C 310.089844 90.109375 310.910156 89.804688 311.777344 89.855469 C 322.9375 90.519531 334.195312 89.601562 345.457031 87.347656 C 348.425781 86.785156 350.726562 84.378906 351.1875 81.410156 C 351.546875 79.101562 351.902344 76.800781 352.109375 74.546875 C 345.148438 77.671875 337.011719 79.410156 328.257812 79.410156 C 310.089844 79.410156 294.328125 71.832031 286.855469 60.777344 Z M 286.855469 60.777344 " fill-opacity="1" fill-rule="nonzero"/><path fill="#ffffff" d="M 341.25 45.699219 C 337.6875 44.609375 334.125 44.039062 330.5625 43.648438 C 327 43.230469 323.4375 43.074219 319.875 43.0625 C 316.316406 43.066406 312.753906 43.222656 309.191406 43.640625 C 305.628906 44.027344 302.066406 44.601562 298.503906 45.699219 C 302.066406 46.796875 305.628906 47.371094 309.191406 47.757812 C 312.753906 48.175781 316.316406 48.332031 319.875 48.335938 C 323.4375 48.324219 327 48.167969 330.5625 47.75 C 334.125 47.359375 337.6875 46.789062 341.25 45.699219 Z M 341.25 45.699219 " fill-opacity="1" fill-rule="nonzero"/><path fill="#ffffff" d="M 341.25 59.261719 C 337.6875 58.171875 334.125 57.601562 330.5625 57.214844 C 327 56.792969 323.4375 56.636719 319.875 56.625 C 316.316406 56.628906 312.753906 56.789062 309.191406 57.203125 C 305.628906 57.589844 302.066406 58.164062 298.503906 59.261719 C 302.066406 60.359375 305.628906 60.933594 309.191406 61.320312 C 312.753906 61.738281 316.316406 61.894531 319.875 61.898438 C 323.4375 61.886719 327 61.730469 330.5625 61.3125 C 334.125 60.925781 337.6875 60.351562 341.25 59.261719 Z M 341.25 59.261719 " fill-opacity="1" fill-rule="nonzero"/><path fill="#ffffff" d="M 341.25 72.824219 C 337.6875 71.734375 334.125 71.164062 330.5625 70.777344 C 327 70.355469 323.4375 70.199219 319.875 70.191406 C 316.316406 70.191406 312.753906 70.351562 309.191406 70.765625 C 305.628906 71.152344 302.066406 71.726562 298.503906 72.824219 C 302.066406 73.921875 305.628906 74.496094 309.191406 74.882812 C 312.753906 75.300781 316.316406 75.457031 319.875 75.460938 C 323.4375 75.449219 327 75.292969 330.5625 74.875 C 334.125 74.488281 337.6875 73.917969 341.25 72.824219 Z M 341.25 72.824219 " fill-opacity="1" fill-rule="nonzero"/></svg>