<svg xmlns="http://www.w3.org/2000/svg" xmlns:xlink="http://www.w3.org/1999/xlink" width="500" zoomAndPan="magnify" viewBox="0 0 375 374.999991" height="500" preserveAspectRatio="xMidYMid meet" version="1.0"><defs><clipPath id="794f9a5dff"><path d="M 21 348 L 355 348 L 355 364.8125 L 21 364.8125 Z M 21 348 " clip-rule="nonzero"/></clipPath><clipPath id="a12547a794"><path d="M 14.410156 337 L 360.910156 337 L 360.910156 356 L 14.410156 356 Z M 14.410156 337 " clip-rule="nonzero"/></clipPath></defs><path fill="#f0387e" d="M 140.941406 5.460938 C 140.167969 3.578125 139.21875 1.925781 137.984375 0.835938 C 135.707031 -1.179688 132.183594 -0.417969 129.273438 0.472656 C 120.984375 2.996094 112.726562 5.609375 104.464844 8.207031 C 87.628906 13.503906 70.671875 17.917969 54.082031 23.839844 C 47.078125 26.34375 32.566406 28.402344 30.078125 36.992188 C 28.164062 43.582031 34.109375 58.785156 36.941406 68.070312 C 40.175781 78.675781 43.617188 89.210938 46.878906 99.804688 C 53.371094 120.882812 59.882812 141.953125 66.707031 162.925781 L 174.574219 114.9375 C 164.875 83.289062 153.378906 45.734375 144.25 16.632812 C 143.320312 13.671875 142.453125 9.132812 140.941406 5.460938 " fill-opacity="1" fill-rule="nonzero"/><path fill="#f25188" d="M 43.625 26.980469 C 37.589844 28.941406 31.597656 31.75 30.078125 36.992188 C 28.164062 43.585938 34.109375 58.785156 36.941406 68.070312 C 40.175781 78.675781 43.617188 89.210938 46.878906 99.804688 C 53.371094 120.882812 59.882812 141.957031 66.707031 162.925781 C 66.707031 162.925781 77.40625 158.164062 84.003906 155.230469 C 71.039062 114.40625 55.25 66.984375 43.625 26.980469 " fill-opacity="1" fill-rule="nonzero"/><path fill="#ffffff" d="M 71.027344 161.941406 C 76.28125 176.710938 99.0625 166.105469 114.742188 161.148438 C 123.601562 158.34375 155.746094 147.777344 161.75 145.757812 C 167.398438 143.863281 173.234375 142.144531 178.855469 140.058594 C 177.6875 133.953125 175.535156 127.640625 173.875 122.792969 C 173.59375 121.976562 173.347656 121.230469 173.125 120.558594 C 173.023438 120.253906 172.929688 119.964844 172.832031 119.691406 C 172.390625 118.398438 172.007812 117.414062 171.558594 116.691406 C 170.949219 116.8125 170.265625 116.976562 169.496094 117.167969 C 154.027344 121.046875 108.296875 135.550781 99.753906 138.691406 C 88.652344 142.777344 66.492188 149.25 71.027344 161.941406 " fill-opacity="1" fill-rule="nonzero"/><path fill="#f78fb7" d="M 95.710938 136.691406 C 106.378906 133.246094 167.511719 114.078125 171.972656 113.179688 C 172.367188 113.101562 172.769531 113.023438 173.160156 113.050781 C 174.109375 113.113281 174.378906 114.273438 174.574219 114.9375 C 174.636719 115.152344 174.683594 115.398438 174.53125 115.601562 C 174.382812 115.800781 174.101562 115.886719 173.84375 115.964844 C 171.179688 116.71875 168.519531 117.488281 165.855469 118.25 C 160.757812 119.707031 155.660156 121.160156 150.5625 122.625 C 147.402344 123.53125 144.230469 124.394531 141.09375 125.363281 C 135.558594 127.070312 130.03125 128.804688 124.507812 130.558594 C 119.773438 132.058594 115.046875 133.578125 110.324219 135.128906 C 107.3125 136.117188 104.285156 137.101562 101.300781 138.179688 C 101.175781 138.226562 101.054688 138.269531 100.929688 138.3125 C 89.429688 142.527344 66.480469 149.253906 71.023438 161.941406 C 76.300781 176.707031 99.929688 165.828125 116.171875 160.6875 C 119.0625 159.753906 121.957031 158.832031 124.84375 157.890625 C 129.480469 156.386719 134.113281 154.871094 138.746094 153.355469 C 143.488281 151.804688 148.226562 150.25 152.964844 148.6875 C 156.398438 147.558594 159.835938 146.425781 163.265625 145.289062 C 166.742188 144.128906 177.074219 140.640625 178.855469 140.058594 C 179.691406 139.785156 180.824219 139.390625 181.6875 139.230469 C 182.527344 139.074219 182.632812 139.96875 182.828125 140.457031 C 183.136719 141.226562 183.222656 141.648438 182.398438 142.089844 C 180.875 142.898438 173.578125 145.25 171.851562 145.816406 C 168.40625 146.949219 164.9375 148.019531 161.503906 149.179688 C 155.292969 151.285156 149.007812 153.195312 142.761719 155.1875 C 133.605469 158.109375 122.335938 161.578125 113.121094 164.320312 C 93.128906 170.269531 72.230469 180.078125 66.855469 163.417969 C 62.140625 148.796875 77.886719 142.449219 95.710938 136.691406 " fill-opacity="1" fill-rule="nonzero"/><path fill="#e8f0f3" d="M 89.492188 145.828125 C 89.566406 146.066406 89.871094 146.179688 90.167969 146.085938 L 90.171875 146.082031 C 117.511719 137.011719 145.398438 128.433594 173.125 120.558594 C 173.023438 120.253906 172.929688 119.964844 172.832031 119.691406 C 145.109375 127.566406 117.21875 136.144531 89.882812 145.214844 C 89.585938 145.316406 89.40625 145.589844 89.492188 145.828125 " fill-opacity="1" fill-rule="nonzero"/><path fill="#e8f0f3" d="M 161.535156 126.054688 C 132.417969 135.132812 103.375 144.457031 74.414062 154.015625 C 74.148438 154.101562 74.003906 154.390625 74.089844 154.660156 C 74.179688 154.925781 74.464844 155.070312 74.734375 154.980469 C 103.691406 145.425781 132.726562 136.101562 161.839844 127.027344 C 162.105469 126.941406 162.253906 126.65625 162.171875 126.386719 C 162.085938 126.121094 161.800781 125.96875 161.535156 126.054688 " fill-opacity="1" fill-rule="nonzero"/><path fill="#e8f0f3" d="M 171.832031 129.917969 C 139.804688 139.957031 105.621094 150.515625 72.773438 161.625 C 72.507812 161.714844 72.363281 162.003906 72.457031 162.269531 C 72.542969 162.535156 72.835938 162.679688 73.101562 162.589844 C 105.929688 151.484375 140.105469 140.933594 172.136719 130.886719 C 172.40625 130.804688 172.554688 130.519531 172.46875 130.25 C 172.386719 129.980469 172.101562 129.835938 171.832031 129.917969 " fill-opacity="1" fill-rule="nonzero"/><path fill="#e8f0f3" d="M 147.429688 142.808594 C 124.964844 150.054688 99.496094 158.226562 78.664062 164.988281 C 78.394531 165.074219 78.25 165.363281 78.335938 165.632812 C 78.421875 165.898438 78.710938 166.046875 78.976562 165.957031 C 99.808594 159.195312 125.277344 151.023438 147.742188 143.777344 C 148.007812 143.691406 148.15625 143.402344 148.070312 143.136719 C 147.984375 142.867188 147.695312 142.722656 147.429688 142.808594 " fill-opacity="1" fill-rule="nonzero"/><path fill="#e8f0f3" d="M 176.316406 138.101562 C 169.625 140.28125 126.3125 154.230469 109.074219 159.746094 C 108.804688 159.832031 108.65625 160.117188 108.742188 160.386719 C 108.828125 160.65625 109.113281 160.800781 109.382812 160.714844 C 126.625 155.199219 169.933594 141.25 176.632812 139.070312 C 176.898438 138.984375 177.046875 138.695312 176.957031 138.429688 C 176.871094 138.160156 176.582031 138.015625 176.316406 138.101562 " fill-opacity="1" fill-rule="nonzero"/><path fill="#ffffff" d="M 120.648438 28.832031 C 120.238281 28.636719 119.628906 28.820312 119.136719 28.988281 C 113.59375 30.886719 107.960938 32.628906 102.375 34.429688 C 97.992188 35.84375 93.609375 37.257812 89.222656 38.671875 C 85.53125 39.863281 81.898438 40.992188 78.21875 42.21875 C 77.476562 42.464844 76.761719 42.757812 76.050781 43.070312 C 75.753906 43.203125 75.4375 43.355469 75.28125 43.601562 C 75.097656 43.878906 75.171875 44.195312 75.25 44.476562 C 75.445312 45.164062 75.675781 47.320312 76.546875 47.585938 C 76.769531 47.65625 77.035156 47.621094 77.28125 47.5625 C 80.085938 46.925781 82.886719 45.933594 85.632812 45.058594 C 88.816406 44.046875 91.996094 43.027344 95.179688 42.003906 C 98.996094 40.773438 102.816406 39.542969 106.632812 38.308594 C 109.390625 37.417969 112.148438 36.527344 114.90625 35.628906 C 116.25 35.191406 117.621094 34.675781 118.980469 34.304688 C 119.835938 34.070312 121.203125 33.644531 121.765625 32.925781 C 122.238281 32.320312 121.765625 31.210938 121.574219 30.601562 C 121.40625 30.058594 121.269531 29.132812 120.648438 28.832031 " fill-opacity="1" fill-rule="nonzero"/><path fill="#ffffff" d="M 137.714844 34.851562 C 137.113281 34.714844 136.136719 35.015625 135.351562 35.28125 C 126.453125 38.261719 117.4375 41.09375 108.492188 43.976562 C 101.46875 46.242188 94.441406 48.511719 87.417969 50.777344 C 81.503906 52.6875 75.691406 54.519531 69.789062 56.460938 C 68.601562 56.851562 67.441406 57.285156 66.289062 57.746094 C 65.804688 57.9375 65.292969 58.15625 65.003906 58.4375 C 64.675781 58.769531 64.730469 59.085938 64.804688 59.371094 C 64.984375 60.0625 64.957031 62.296875 66.261719 62.429688 C 66.59375 62.460938 67.007812 62.378906 67.402344 62.277344 C 71.84375 61.105469 76.347656 59.5625 80.75 58.15625 C 85.84375 56.527344 90.9375 54.894531 96.035156 53.25 C 102.152344 51.277344 108.269531 49.304688 114.386719 47.332031 C 118.808594 45.902344 123.226562 44.476562 127.644531 43.042969 C 129.796875 42.34375 132.007812 41.5625 134.171875 40.925781 C 135.53125 40.527344 137.726562 39.839844 138.71875 38.980469 C 139.554688 38.257812 139.019531 37.167969 138.832031 36.554688 C 138.667969 36.015625 138.625 35.058594 137.714844 34.851562 " fill-opacity="1" fill-rule="nonzero"/><path fill="#333a5b" d="M 211.21875 5.140625 L 210.972656 4.992188 C 209.9375 4.488281 208.160156 4.714844 207.050781 4.835938 C 206.21875 4.929688 205.339844 5.121094 204.75 5.714844 C 204.464844 5.996094 204.265625 6.359375 204.070312 6.714844 C 200.375 13.464844 167.457031 76.277344 160.175781 91.113281 C 159.589844 92.316406 158.832031 93.707031 159.476562 94.875 C 159.863281 95.582031 160.640625 95.960938 161.355469 96.324219 C 202.714844 117.417969 260.824219 149.394531 291.453125 165.917969 C 292.554688 166.507812 293.832031 166.90625 295.0625 166.691406 C 296.660156 166.417969 297.96875 165.140625 298.773438 163.730469 C 303.070312 156.191406 307.226562 148.566406 311.386719 140.953125 C 316.964844 130.738281 322.503906 120.503906 328.011719 110.253906 C 332.675781 101.558594 337.332031 92.863281 341.882812 84.109375 C 342.8125 82.328125 344.679688 79.933594 344.167969 77.894531 C 343.933594 76.96875 343.421875 76.140625 342.917969 75.328125 C 342.476562 74.625 342.035156 73.914062 341.597656 73.207031 C 341.515625 73.078125 341.429688 72.9375 341.296875 72.859375 C 341.144531 72.769531 340.96875 72.761719 340.796875 72.746094 C 339.5625 72.632812 338.570312 71.84375 337.484375 71.324219 C 336.351562 70.785156 335.214844 70.269531 334.042969 69.8125 C 331.132812 68.683594 328.125 67.824219 325.089844 67.128906 C 307.964844 63.1875 291.730469 55.941406 275.8125 48.503906 C 254.105469 38.367188 237.269531 20.089844 216.003906 9.054688 C 214.902344 8.179688 213.800781 7.308594 212.699219 6.4375 C 212.261719 6.089844 211.726562 5.480469 211.21875 5.140625 " fill-opacity="1" fill-rule="nonzero"/><path fill="#e0f0fb" d="M 293.507812 155.015625 C 274.820312 140.960938 256.085938 126.875 235.917969 115.042969 C 215.75 103.207031 191.710938 100.492188 170.957031 89.722656 L 167.949219 88.160156 L 165.296875 90.085938 C 164.355469 91.71875 163.671875 92.964844 164.582031 93.421875 C 167.644531 94.945312 228.589844 125.03125 249.769531 137.011719 C 263.691406 144.886719 277.984375 152.601562 290.960938 159.875 C 293.035156 161.042969 295.160156 162.480469 296.222656 160.351562 C 296.507812 159.785156 296.925781 159.265625 297.113281 158.5 C 297.460938 157.125 294.738281 155.945312 293.507812 155.015625 " fill-opacity="1" fill-rule="nonzero"/><path fill="#e7e6e6" d="M 231.195312 124.289062 C 227.980469 120.8125 222.585938 117.222656 216.246094 113.144531 C 198.867188 101.953125 176.761719 96.039062 165.296875 90.085938 C 174.738281 70.890625 186.722656 48.394531 196.65625 28.804688 C 199.128906 23.9375 206.933594 9.828125 210.613281 2.78125 C 217.667969 3.535156 229.742188 8.898438 238.171875 12.789062 C 245.457031 16.152344 252.691406 19.707031 259.289062 24.261719 C 260.804688 25.308594 262.285156 26.3125 263.6875 27.351562 C 265.808594 28.90625 267.746094 30.527344 269.332031 32.46875 C 270.785156 34.226562 271.957031 36.253906 272.714844 38.722656 C 272.96875 39.542969 273.1875 40.386719 273.183594 41.246094 C 273.175781 42.421875 273.003906 43.820312 272.472656 44.875 C 265.945312 57.824219 234.949219 117.238281 231.195312 124.289062 " fill-opacity="1" fill-rule="nonzero"/><path fill="#e0f0fb" d="M 272.472656 44.871094 C 273.003906 43.820312 273.175781 42.421875 273.183594 41.242188 C 273.1875 40.386719 272.972656 39.542969 272.71875 38.722656 C 272.558594 38.203125 272.375 37.710938 272.179688 37.230469 C 268.839844 43.65625 234.59375 110.253906 228.617188 121.847656 C 229.582031 122.671875 230.449219 123.484375 231.195312 124.289062 C 234.949219 117.242188 265.945312 57.824219 272.472656 44.871094 " fill-opacity="1" fill-rule="nonzero"/><path fill="#e8f0f3" d="M 212.289062 18.964844 C 229.347656 24.015625 247.457031 32.992188 260.167969 43.019531 C 260.363281 43.171875 260.648438 43.140625 260.804688 42.941406 C 260.960938 42.746094 260.929688 42.460938 260.730469 42.304688 C 247.894531 32.1875 229.71875 23.183594 212.550781 18.09375 C 212.308594 18.023438 212.054688 18.160156 211.984375 18.402344 C 211.914062 18.640625 212.050781 18.894531 212.292969 18.964844 L 212.289062 18.964844 " fill-opacity="1" fill-rule="nonzero"/><path fill="#e8f0f3" d="M 205.84375 28.566406 C 223.761719 34 240.796875 42.242188 256.289062 53.042969 C 256.492188 53.183594 256.773438 53.132812 256.917969 52.929688 C 257.058594 52.726562 257.007812 52.445312 256.804688 52.300781 C 241.234375 41.449219 224.117188 33.164062 206.105469 27.699219 C 205.867188 27.628906 205.617188 27.761719 205.542969 28 C 205.46875 28.238281 205.605469 28.492188 205.84375 28.566406 " fill-opacity="1" fill-rule="nonzero"/><path fill="#e8f0f3" d="M 202.214844 38.835938 C 219.828125 43.753906 237.230469 52.914062 251.453125 62.429688 C 251.664062 62.566406 251.941406 62.511719 252.082031 62.304688 C 252.21875 62.097656 252.164062 61.816406 251.957031 61.679688 C 237.671875 52.125 220.199219 42.921875 202.457031 37.96875 C 202.21875 37.902344 201.972656 38.042969 201.90625 38.28125 C 201.835938 38.519531 201.976562 38.769531 202.214844 38.835938 " fill-opacity="1" fill-rule="nonzero"/><path fill="#e8f0f3" d="M 197.394531 47.65625 C 215.671875 52.859375 233.085938 61.171875 248.769531 72.253906 C 248.972656 72.398438 249.257812 72.351562 249.398438 72.148438 C 249.542969 71.945312 249.496094 71.660156 249.292969 71.519531 C 233.523438 60.378906 216.015625 52.019531 197.636719 46.789062 C 197.398438 46.71875 197.148438 46.855469 197.082031 47.097656 C 197.011719 47.339844 197.152344 47.585938 197.394531 47.65625 " fill-opacity="1" fill-rule="nonzero"/><path fill="#e8f0f3" d="M 192.945312 57.132812 C 210.769531 62.363281 227.070312 71.351562 242.78125 81.382812 C 242.992188 81.515625 243.273438 81.453125 243.402344 81.242188 C 243.539062 81.035156 243.476562 80.753906 243.269531 80.621094 C 227.527344 70.570312 211.148438 61.535156 193.199219 56.269531 C 192.960938 56.199219 192.707031 56.335938 192.636719 56.574219 C 192.570312 56.8125 192.703125 57.0625 192.945312 57.132812 " fill-opacity="1" fill-rule="nonzero"/><path fill="#e8f0f3" d="M 189.332031 66.851562 C 206.320312 72.128906 222.429688 80.058594 237.046875 90.390625 C 237.25 90.535156 237.53125 90.488281 237.675781 90.28125 C 237.816406 90.082031 237.769531 89.796875 237.566406 89.65625 C 222.871094 79.265625 206.675781 71.292969 189.601562 65.988281 C 189.359375 65.917969 189.109375 66.050781 189.035156 66.289062 C 188.960938 66.527344 189.09375 66.777344 189.332031 66.851562 " fill-opacity="1" fill-rule="nonzero"/><path fill="#e8f0f3" d="M 183.574219 76.089844 C 200.558594 81.074219 216.957031 89.183594 231.351562 99.511719 C 231.554688 99.65625 231.835938 99.609375 231.980469 99.40625 C 232.125 99.207031 232.082031 98.921875 231.875 98.777344 C 217.402344 88.390625 200.914062 80.242188 183.828125 75.222656 C 183.589844 75.152344 183.339844 75.289062 183.269531 75.527344 C 183.199219 75.765625 183.332031 76.019531 183.574219 76.089844 " fill-opacity="1" fill-rule="nonzero"/><path fill="#e7e6e6" d="M 296.910156 43.789062 C 304.4375 46.5625 311.507812 50.433594 318.449219 54.453125 C 326.476562 59.105469 337.148438 66.902344 343.601562 72.382812 C 339.949219 79.445312 331.789062 92.789062 329.222656 97.609375 C 318.90625 117.003906 307.394531 139.738281 297.113281 158.503906 C 285.648438 152.550781 268.089844 137.878906 248.9375 130.113281 C 241.949219 127.28125 235.910156 124.929688 231.214844 124.300781 C 234.820312 117.179688 265.546875 57.800781 272.382812 45.03125 C 272.941406 43.992188 273.730469 43.0625 274.691406 42.375 C 275.390625 41.878906 276.203125 41.570312 277.019531 41.304688 C 283.972656 39.050781 290.214844 41.324219 296.910156 43.789062 " fill-opacity="1" fill-rule="nonzero"/><path fill="#e8f0f3" d="M 328.847656 78.453125 C 314.804688 67.34375 296.980469 57.664062 281.320312 52.988281 C 281.078125 52.917969 280.824219 53.054688 280.753906 53.292969 C 280.683594 53.535156 280.816406 53.785156 281.058594 53.859375 C 296.578125 58.484375 314.339844 68.125 328.285156 79.164062 C 328.480469 79.320312 328.765625 79.285156 328.921875 79.089844 C 329.078125 78.894531 329.046875 78.609375 328.851562 78.453125 L 328.847656 78.453125 " fill-opacity="1" fill-rule="nonzero"/><path fill="#e8f0f3" d="M 324.691406 89.25 C 309.863281 77.664062 293.234375 68.4375 275.390625 61.949219 C 275.160156 61.863281 274.902344 61.984375 274.816406 62.21875 C 274.730469 62.453125 274.851562 62.710938 275.085938 62.796875 C 292.839844 69.25 309.382812 78.433594 324.140625 89.960938 C 324.335938 90.113281 324.621094 90.078125 324.773438 89.882812 C 324.925781 89.683594 324.890625 89.402344 324.691406 89.25 " fill-opacity="1" fill-rule="nonzero"/><path fill="#e8f0f3" d="M 318.390625 98.132812 C 304.128906 86.480469 286.542969 77.492188 270.511719 71.308594 C 270.28125 71.21875 270.019531 71.335938 269.925781 71.570312 C 269.839844 71.800781 269.957031 72.0625 270.1875 72.152344 C 286.152344 78.304688 303.664062 87.265625 317.816406 98.832031 C 318.011719 98.992188 318.292969 98.960938 318.449219 98.769531 C 318.609375 98.578125 318.582031 98.292969 318.390625 98.136719 L 318.390625 98.132812 " fill-opacity="1" fill-rule="nonzero"/><path fill="#e8f0f3" d="M 313.941406 107.152344 C 299.085938 95.136719 282.179688 85.632812 263.992188 79.148438 C 263.757812 79.066406 263.5 79.1875 263.417969 79.421875 C 263.332031 79.65625 263.457031 79.914062 263.691406 80 C 281.777344 86.445312 298.597656 95.902344 313.375 107.851562 C 313.570312 108.007812 313.855469 107.980469 314.011719 107.785156 C 314.167969 107.59375 314.136719 107.308594 313.945312 107.152344 L 313.941406 107.152344 " fill-opacity="1" fill-rule="nonzero"/><path fill="#e8f0f3" d="M 308.738281 116.234375 C 294.101562 104.589844 277.285156 96.398438 260.003906 89.308594 C 259.773438 89.214844 259.511719 89.324219 259.417969 89.554688 C 259.324219 89.785156 259.433594 90.046875 259.664062 90.144531 C 276.910156 97.21875 293.640625 105.375 308.175781 116.941406 C 308.371094 117.097656 308.65625 117.0625 308.8125 116.867188 C 308.964844 116.671875 308.933594 116.390625 308.738281 116.234375 " fill-opacity="1" fill-rule="nonzero"/><path fill="#e8f0f3" d="M 302.851562 124.769531 C 288.6875 113.855469 272.847656 105.203125 255.890625 99.164062 C 255.65625 99.082031 255.402344 99.207031 255.316406 99.441406 C 255.234375 99.675781 255.355469 99.929688 255.59375 100.015625 C 272.453125 106.023438 288.210938 114.628906 302.300781 125.484375 C 302.5 125.636719 302.78125 125.597656 302.933594 125.398438 C 303.085938 125.203125 303.050781 124.917969 302.851562 124.769531 " fill-opacity="1" fill-rule="nonzero"/><path fill="#e8f0f3" d="M 298.617188 134.800781 C 284.683594 123.714844 268.527344 114.921875 251.699219 109.066406 C 251.464844 108.984375 251.207031 109.109375 251.125 109.34375 C 251.042969 109.578125 251.167969 109.835938 251.402344 109.917969 C 268.136719 115.742188 284.203125 124.488281 298.054688 135.503906 C 298.25 135.660156 298.535156 135.628906 298.691406 135.433594 C 298.84375 135.238281 298.8125 134.953125 298.617188 134.800781 " fill-opacity="1" fill-rule="nonzero"/><path fill="#f0387e" d="M 227.820312 112.472656 C 227.085938 109.703125 227.417969 106.082031 227.230469 104.894531 C 226.347656 105.324219 223.554688 107.207031 220.675781 108.765625 C 235.828125 81.183594 249.140625 54.722656 263.6875 27.351562 C 265.804688 28.902344 267.742188 30.527344 269.332031 32.46875 C 259.273438 51.730469 241.480469 86.820312 239.234375 90.742188 C 235.96875 96.441406 231.363281 106.867188 227.820312 112.472656 " fill-opacity="1" fill-rule="nonzero"/><path fill="#333a5b" d="M 339.417969 136.085938 C 338.234375 132.527344 336.09375 129.355469 332.257812 127.375 C 327.355469 124.855469 321.0625 124.742188 315.15625 124.71875 C 290.855469 124.625 150.804688 124.65625 126.5 124.730469 C 101.414062 124.808594 76.8125 122.996094 51.730469 124.53125 C 46.605469 124.847656 41.195312 125.328125 37.085938 127.695312 C 31.4375 130.953125 29.773438 136.832031 29.0625 142.21875 C 27.71875 152.394531 28.964844 162.617188 28.925781 172.824219 C 28.886719 183.035156 28.761719 193.25 28.816406 203.464844 C 29.007812 239.320312 29.265625 220.648438 29.609375 256.503906 C 29.71875 268.089844 29.738281 279.679688 29.851562 291.261719 C 29.953125 301.921875 28.808594 313.433594 30.777344 323.949219 C 31.4375 327.472656 33.242188 330.984375 36.628906 333.425781 C 39.421875 335.429688 43.082031 336.578125 46.75 337.421875 C 60.660156 340.617188 77.386719 339.816406 91.726562 340.230469 C 113.3125 340.851562 134.921875 341.144531 156.523438 341.273438 C 174.527344 341.378906 308.472656 341.628906 326.304688 339.414062 C 344.476562 337.160156 341.078125 318.308594 341.484375 307.789062 C 342.035156 293.535156 341.445312 273.394531 341.460938 259.132812 C 341.488281 236.347656 341.429688 208.816406 341.355469 190.570312 C 341.300781 177.152344 340.707031 163.875 340.839844 150.472656 C 340.878906 146.285156 341 140.84375 339.417969 136.085938 " fill-opacity="1" fill-rule="nonzero"/><path fill="#b1b3e1" d="M 329.253906 146.324219 C 328.148438 143.15625 326.148438 140.332031 322.5625 138.574219 C 317.984375 136.328125 312.109375 136.226562 306.59375 136.207031 C 283.890625 136.121094 153.0625 136.148438 130.359375 136.214844 C 106.921875 136.285156 83.941406 134.675781 60.511719 136.042969 C 55.722656 136.320312 50.671875 136.75 46.828125 138.855469 C 41.554688 141.753906 40 146.988281 39.335938 151.785156 C 38.082031 160.839844 39.246094 169.941406 39.207031 179.019531 C 39.171875 188.109375 39.058594 197.199219 39.105469 206.289062 C 39.285156 238.203125 39.523438 221.582031 39.847656 253.496094 C 39.949219 263.808594 39.96875 274.117188 40.070312 284.429688 C 40.167969 293.914062 39.097656 304.164062 40.9375 313.519531 C 41.554688 316.65625 43.238281 319.78125 46.402344 321.949219 C 49.011719 323.738281 52.429688 324.757812 55.859375 325.507812 C 68.855469 328.355469 84.476562 327.644531 97.875 328.011719 C 118.039062 328.566406 138.226562 328.824219 158.402344 328.9375 C 175.222656 329.035156 300.34375 329.257812 317.003906 327.285156 C 333.980469 325.277344 330.804688 308.5 331.183594 299.136719 C 331.703125 286.449219 331.152344 268.527344 331.164062 255.835938 C 331.1875 235.554688 331.128906 211.050781 331.0625 194.8125 C 331.015625 182.875 330.460938 171.054688 330.582031 159.128906 C 330.621094 155.402344 330.730469 150.558594 329.253906 146.324219 " fill-opacity="1" fill-rule="nonzero"/><path fill="#ffffff" d="M 196.707031 174.078125 C 196.152344 172.109375 195.152344 170.355469 193.359375 169.265625 C 191.066406 167.867188 188.125 167.808594 185.363281 167.796875 C 174.003906 167.742188 108.523438 167.761719 97.160156 167.800781 C 85.433594 167.84375 73.929688 166.84375 62.203125 167.691406 C 59.804688 167.867188 57.277344 168.132812 55.355469 169.441406 C 52.714844 171.242188 51.9375 174.492188 51.605469 177.46875 C 50.976562 183.09375 51.558594 188.742188 51.539062 194.382812 C 51.523438 200.027344 51.464844 205.671875 51.492188 211.316406 C 51.578125 231.136719 51.699219 220.816406 51.859375 240.632812 C 51.914062 247.039062 51.921875 253.441406 51.972656 259.84375 C 52.019531 265.734375 51.488281 272.097656 52.40625 277.910156 C 52.714844 279.859375 53.558594 281.796875 55.144531 283.144531 C 56.445312 284.257812 58.15625 284.890625 59.875 285.355469 C 66.378906 287.121094 74.199219 286.679688 80.902344 286.910156 C 90.996094 287.253906 101.097656 287.414062 111.195312 287.484375 C 119.617188 287.542969 182.238281 287.683594 190.578125 286.457031 C 199.070312 285.210938 197.484375 274.792969 197.671875 268.976562 C 197.933594 261.097656 197.65625 249.96875 197.664062 242.085938 C 197.675781 229.492188 197.648438 214.277344 197.609375 204.191406 C 197.585938 196.777344 197.308594 189.4375 197.371094 182.027344 C 197.390625 179.714844 197.445312 176.707031 196.707031 174.078125 " fill-opacity="1" fill-rule="nonzero"/><path fill="#8069bb" d="M 52.347656 277.453125 C 52.371094 277.605469 52.382812 277.757812 52.40625 277.910156 C 52.714844 279.859375 53.558594 281.796875 55.144531 283.144531 C 56.445312 284.257812 58.15625 284.890625 59.875 285.355469 C 66.378906 287.121094 74.199219 286.679688 80.902344 286.910156 C 90.996094 287.253906 101.097656 287.414062 111.195312 287.484375 C 119.617188 287.542969 182.238281 287.683594 190.578125 286.457031 C 195.609375 285.71875 197.101562 281.765625 197.523438 277.453125 L 52.347656 277.453125 " fill-opacity="1" fill-rule="nonzero"/><path fill="#ffffff" d="M 261.773438 169.171875 C 261.585938 168.640625 261.253906 168.164062 260.644531 167.867188 C 259.875 167.488281 258.886719 167.472656 257.957031 167.46875 C 254.136719 167.457031 232.109375 167.460938 228.285156 167.472656 C 224.339844 167.480469 220.46875 167.210938 216.527344 167.441406 C 215.722656 167.488281 214.867188 167.5625 214.222656 167.917969 C 213.335938 168.402344 213.074219 169.285156 212.960938 170.09375 C 212.75 171.617188 212.945312 173.148438 212.941406 174.675781 C 212.933594 176.207031 212.914062 177.742188 212.921875 179.269531 C 212.953125 184.640625 212.992188 181.84375 213.046875 187.21875 C 213.066406 188.953125 213.066406 190.691406 213.085938 192.425781 C 213.101562 194.023438 212.921875 195.75 213.230469 197.324219 C 213.335938 197.851562 213.617188 198.378906 214.152344 198.742188 C 214.589844 199.042969 215.164062 199.214844 215.742188 199.339844 C 217.929688 199.820312 220.558594 199.703125 222.816406 199.761719 C 226.210938 199.855469 229.613281 199.898438 233.007812 199.917969 C 235.839844 199.9375 256.90625 199.972656 259.710938 199.640625 C 262.570312 199.304688 262.035156 196.480469 262.097656 194.902344 C 262.183594 192.765625 262.09375 189.75 262.09375 187.609375 C 262.097656 184.195312 262.089844 180.070312 262.078125 177.335938 C 262.070312 175.328125 261.976562 173.335938 261.996094 171.328125 C 262.003906 170.703125 262.023438 169.886719 261.773438 169.171875 " fill-opacity="1" fill-rule="nonzero"/><path fill="#ffffff" d="M 307.207031 167.617188 C 306.929688 167.351562 306.398438 167.34375 305.96875 167.351562 C 301.078125 167.441406 296.15625 167.378906 291.265625 167.378906 C 287.417969 167.378906 283.574219 167.378906 279.730469 167.382812 C 276.492188 167.382812 273.320312 167.347656 270.082031 167.375 C 269.433594 167.382812 268.785156 167.429688 268.144531 167.5 C 267.875 167.527344 267.582031 167.566406 267.394531 167.722656 C 267.179688 167.898438 267.15625 168.167969 267.148438 168.410156 C 267.125 169.003906 266.757812 170.773438 267.378906 171.210938 C 267.539062 171.324219 267.757812 171.363281 267.96875 171.378906 C 270.359375 171.59375 272.839844 171.519531 275.242188 171.53125 C 278.027344 171.542969 280.816406 171.550781 283.605469 171.550781 C 286.953125 171.550781 290.300781 171.550781 293.648438 171.550781 C 296.066406 171.550781 298.484375 171.542969 300.902344 171.539062 C 302.085938 171.535156 303.300781 171.484375 304.476562 171.53125 C 305.214844 171.5625 306.414062 171.578125 307.042969 171.152344 C 307.574219 170.789062 307.480469 169.789062 307.488281 169.257812 C 307.488281 168.78125 307.621094 168.011719 307.207031 167.617188 " fill-opacity="1" fill-rule="nonzero"/><path fill="#ffffff" d="M 307.207031 176.765625 C 306.929688 176.503906 306.398438 176.492188 305.96875 176.5 C 301.078125 176.589844 296.15625 176.53125 291.265625 176.53125 C 287.417969 176.53125 283.574219 176.53125 279.730469 176.53125 C 276.492188 176.53125 273.320312 176.496094 270.082031 176.527344 C 269.433594 176.53125 268.785156 176.582031 268.144531 176.648438 C 267.875 176.679688 267.582031 176.71875 267.394531 176.871094 C 267.179688 177.046875 267.15625 177.316406 267.148438 177.558594 C 267.125 178.15625 266.757812 179.921875 267.378906 180.363281 C 267.539062 180.472656 267.757812 180.511719 267.96875 180.53125 C 270.359375 180.742188 272.839844 180.671875 275.242188 180.679688 C 278.027344 180.691406 280.816406 180.699219 283.605469 180.699219 C 286.953125 180.699219 290.300781 180.703125 293.648438 180.699219 C 296.066406 180.699219 298.484375 180.699219 300.902344 180.691406 C 302.085938 180.6875 303.300781 180.632812 304.476562 180.683594 C 305.214844 180.714844 306.414062 180.726562 307.042969 180.300781 C 307.574219 179.941406 307.480469 178.941406 307.488281 178.40625 C 307.488281 177.933594 307.621094 177.164062 307.207031 176.765625 " fill-opacity="1" fill-rule="nonzero"/><path fill="#ffffff" d="M 289.53125 185.914062 C 289.375 185.652344 289.078125 185.640625 288.835938 185.652344 C 286.097656 185.742188 283.339844 185.679688 280.601562 185.679688 C 278.445312 185.679688 276.292969 185.679688 274.140625 185.679688 C 272.324219 185.679688 270.546875 185.644531 268.734375 185.675781 C 268.371094 185.679688 268.011719 185.730469 267.648438 185.800781 C 267.5 185.828125 267.335938 185.867188 267.230469 186.023438 C 267.109375 186.195312 267.097656 186.46875 267.089844 186.710938 C 267.078125 187.304688 266.871094 189.074219 267.222656 189.511719 C 267.308594 189.621094 267.433594 189.660156 267.550781 189.679688 C 268.890625 189.890625 270.277344 189.820312 271.625 189.828125 C 273.1875 189.84375 274.746094 189.847656 276.308594 189.851562 C 278.183594 189.851562 280.058594 189.851562 281.9375 189.847656 C 283.289062 189.847656 284.644531 189.84375 286 189.839844 C 286.660156 189.835938 287.34375 189.78125 288.003906 189.832031 C 288.414062 189.863281 289.085938 189.878906 289.4375 189.449219 C 289.734375 189.089844 289.683594 188.089844 289.6875 187.558594 C 289.691406 187.082031 289.761719 186.3125 289.53125 185.914062 " fill-opacity="1" fill-rule="nonzero"/><path fill="#ffffff" d="M 261.773438 224.492188 C 261.585938 223.960938 261.253906 223.484375 260.644531 223.191406 C 259.875 222.808594 258.886719 222.792969 257.957031 222.789062 C 254.136719 222.777344 232.109375 222.777344 228.285156 222.789062 C 224.339844 222.804688 220.46875 222.53125 216.527344 222.761719 C 215.722656 222.808594 214.867188 222.878906 214.222656 223.234375 C 213.335938 223.726562 213.074219 224.605469 212.960938 225.410156 C 212.75 226.9375 212.945312 228.46875 212.941406 230 C 212.933594 231.527344 212.914062 233.058594 212.921875 234.589844 C 212.953125 239.964844 212.992188 237.164062 213.046875 242.535156 C 213.066406 244.273438 213.066406 246.007812 213.085938 247.746094 C 213.101562 249.34375 212.921875 251.066406 213.230469 252.644531 C 213.335938 253.171875 213.617188 253.699219 214.152344 254.0625 C 214.589844 254.363281 215.164062 254.535156 215.742188 254.664062 C 217.929688 255.140625 220.558594 255.019531 222.816406 255.082031 C 226.210938 255.175781 229.613281 255.21875 233.007812 255.238281 C 235.839844 255.253906 256.90625 255.292969 259.710938 254.960938 C 262.570312 254.625 262.035156 251.796875 262.097656 250.222656 C 262.183594 248.085938 262.09375 245.066406 262.09375 242.929688 C 262.097656 239.515625 262.089844 235.390625 262.078125 232.65625 C 262.070312 230.648438 261.976562 228.65625 261.996094 226.648438 C 262.003906 226.023438 262.023438 225.207031 261.773438 224.492188 " fill-opacity="1" fill-rule="nonzero"/><path fill="#ffffff" d="M 307.207031 222.933594 C 306.929688 222.671875 306.398438 222.664062 305.96875 222.671875 C 301.078125 222.761719 296.15625 222.699219 291.265625 222.699219 C 287.417969 222.699219 283.574219 222.699219 279.730469 222.699219 C 276.492188 222.699219 273.320312 222.667969 270.082031 222.695312 C 269.433594 222.699219 268.785156 222.75 268.144531 222.820312 C 267.875 222.847656 267.582031 222.886719 267.394531 223.042969 C 267.179688 223.21875 267.15625 223.488281 267.148438 223.730469 C 267.125 224.324219 266.757812 226.09375 267.378906 226.53125 C 267.539062 226.640625 267.757812 226.679688 267.96875 226.703125 C 270.359375 226.910156 272.839844 226.839844 275.242188 226.851562 C 278.027344 226.863281 280.816406 226.867188 283.605469 226.871094 C 286.953125 226.871094 290.300781 226.871094 293.648438 226.871094 C 296.066406 226.867188 298.484375 226.867188 300.902344 226.859375 C 302.085938 226.855469 303.300781 226.800781 304.476562 226.851562 C 305.214844 226.886719 306.414062 226.898438 307.042969 226.46875 C 307.574219 226.109375 307.480469 225.113281 307.488281 224.574219 C 307.488281 224.105469 307.621094 223.332031 307.207031 222.933594 " fill-opacity="1" fill-rule="nonzero"/><path fill="#ffffff" d="M 296.394531 232.085938 C 296.191406 231.824219 295.800781 231.8125 295.488281 231.820312 C 291.917969 231.910156 288.320312 231.847656 284.742188 231.847656 C 281.929688 231.847656 279.121094 231.847656 276.3125 231.851562 C 273.945312 231.851562 271.621094 231.816406 269.257812 231.847656 C 268.78125 231.851562 268.3125 231.902344 267.839844 231.96875 C 267.644531 231.996094 267.433594 232.039062 267.292969 232.191406 C 267.136719 232.367188 267.121094 232.636719 267.113281 232.882812 C 267.097656 233.472656 266.824219 235.242188 267.28125 235.683594 C 267.398438 235.792969 267.558594 235.832031 267.714844 235.851562 C 269.460938 236.0625 271.273438 235.992188 273.03125 236 C 275.066406 236.011719 277.105469 236.019531 279.140625 236.019531 C 281.589844 236.019531 284.035156 236.019531 286.484375 236.019531 C 288.253906 236.019531 290.019531 236.015625 291.785156 236.011719 C 292.648438 236.007812 293.542969 235.953125 294.398438 236.003906 C 294.9375 236.035156 295.8125 236.050781 296.273438 235.621094 C 296.660156 235.257812 296.597656 234.261719 296.601562 233.726562 C 296.605469 233.253906 296.699219 232.480469 296.394531 232.085938 " fill-opacity="1" fill-rule="nonzero"/><path fill="#ffffff" d="M 289.53125 241.234375 C 289.375 240.972656 289.078125 240.964844 288.835938 240.96875 C 286.097656 241.0625 283.339844 241 280.601562 241 C 278.445312 241 276.292969 241 274.140625 241 C 272.324219 241 270.546875 240.964844 268.734375 240.996094 C 268.371094 241 268.011719 241.050781 267.648438 241.117188 C 267.5 241.148438 267.335938 241.1875 267.230469 241.34375 C 267.109375 241.519531 267.097656 241.785156 267.089844 242.03125 C 267.078125 242.625 266.871094 244.394531 267.222656 244.832031 C 267.308594 244.941406 267.433594 244.980469 267.550781 245 C 268.890625 245.210938 270.277344 245.140625 271.625 245.152344 C 273.1875 245.160156 274.746094 245.167969 276.308594 245.171875 C 278.183594 245.171875 280.058594 245.171875 281.9375 245.167969 C 283.289062 245.167969 284.644531 245.167969 286 245.160156 C 286.660156 245.15625 287.34375 245.101562 288.003906 245.152344 C 288.414062 245.183594 289.085938 245.195312 289.4375 244.769531 C 289.734375 244.410156 289.683594 243.410156 289.6875 242.875 C 289.691406 242.40625 289.761719 241.632812 289.53125 241.234375 " fill-opacity="1" fill-rule="nonzero"/><path fill="#ffffff" d="M 261.773438 276.257812 C 261.585938 275.726562 261.253906 275.25 260.644531 274.953125 C 259.875 274.574219 258.886719 274.558594 257.957031 274.558594 C 254.136719 274.542969 232.109375 274.546875 228.285156 274.558594 C 224.339844 274.570312 220.46875 274.300781 216.527344 274.53125 C 215.722656 274.574219 214.867188 274.648438 214.222656 275.003906 C 213.335938 275.488281 213.074219 276.371094 212.960938 277.179688 C 212.75 278.703125 212.945312 280.234375 212.941406 281.765625 C 212.933594 283.296875 212.914062 284.824219 212.921875 286.355469 C 212.953125 291.726562 212.992188 288.929688 213.046875 294.304688 C 213.066406 296.039062 213.066406 297.777344 213.085938 299.511719 C 213.101562 301.109375 212.921875 302.835938 213.230469 304.410156 C 213.335938 304.9375 213.617188 305.464844 214.152344 305.828125 C 214.589844 306.128906 215.164062 306.304688 215.742188 306.429688 C 217.929688 306.90625 220.558594 306.789062 222.816406 306.847656 C 226.210938 306.945312 229.613281 306.988281 233.007812 307.003906 C 235.839844 307.023438 256.90625 307.058594 259.710938 306.726562 C 262.570312 306.390625 262.035156 303.5625 262.097656 301.988281 C 262.183594 299.851562 262.09375 296.835938 262.09375 294.699219 C 262.097656 291.28125 262.089844 287.160156 262.078125 284.425781 C 262.070312 282.414062 261.976562 280.421875 261.996094 278.414062 C 262.003906 277.789062 262.023438 276.972656 261.773438 276.257812 " fill-opacity="1" fill-rule="nonzero"/><path fill="#ffffff" d="M 307.207031 274.703125 C 306.929688 274.441406 306.398438 274.429688 305.96875 274.4375 C 301.078125 274.527344 296.15625 274.464844 291.265625 274.464844 C 287.417969 274.464844 283.574219 274.464844 279.730469 274.464844 C 276.492188 274.46875 273.320312 274.433594 270.082031 274.464844 C 269.433594 274.46875 268.785156 274.519531 268.144531 274.585938 C 267.875 274.613281 267.582031 274.65625 267.394531 274.808594 C 267.179688 274.984375 267.15625 275.253906 267.148438 275.496094 C 267.125 276.089844 266.757812 277.859375 267.378906 278.296875 C 267.539062 278.410156 267.757812 278.449219 267.96875 278.46875 C 270.359375 278.679688 272.839844 278.609375 275.242188 278.617188 C 278.027344 278.628906 280.816406 278.632812 283.605469 278.636719 C 286.953125 278.636719 290.300781 278.636719 293.648438 278.636719 C 296.066406 278.636719 298.484375 278.632812 300.902344 278.625 C 302.085938 278.625 303.300781 278.566406 304.476562 278.621094 C 305.214844 278.652344 306.414062 278.664062 307.042969 278.238281 C 307.574219 277.875 307.480469 276.875 307.488281 276.34375 C 307.488281 275.871094 307.621094 275.097656 307.207031 274.703125 " fill-opacity="1" fill-rule="nonzero"/><path fill="#ffffff" d="M 307.207031 283.851562 C 306.929688 283.589844 306.398438 283.578125 305.96875 283.585938 C 301.078125 283.675781 296.15625 283.617188 291.265625 283.617188 C 287.417969 283.617188 283.574219 283.617188 279.730469 283.617188 C 276.492188 283.617188 273.320312 283.582031 270.082031 283.613281 C 269.433594 283.617188 268.785156 283.667969 268.144531 283.734375 C 267.875 283.765625 267.582031 283.804688 267.394531 283.957031 C 267.179688 284.132812 267.15625 284.402344 267.148438 284.644531 C 267.125 285.242188 266.757812 287.011719 267.378906 287.445312 C 267.539062 287.558594 267.757812 287.597656 267.96875 287.617188 C 270.359375 287.828125 272.839844 287.757812 275.242188 287.765625 C 278.027344 287.777344 280.816406 287.785156 283.605469 287.785156 C 286.953125 287.785156 290.300781 287.789062 293.648438 287.785156 C 296.066406 287.785156 298.484375 287.78125 300.902344 287.777344 C 302.085938 287.773438 303.300781 287.71875 304.476562 287.769531 C 305.214844 287.800781 306.414062 287.8125 307.042969 287.386719 C 307.574219 287.023438 307.480469 286.027344 307.488281 285.492188 C 307.488281 285.019531 307.621094 284.25 307.207031 283.851562 " fill-opacity="1" fill-rule="nonzero"/><g clip-path="url(#794f9a5dff)"><path fill="#333a5b" d="M 347.382812 349.289062 C 344.605469 348.894531 341.742188 348.707031 339.054688 348.742188 C 335.195312 348.796875 331.5 349.53125 327.535156 349.570312 C 316.925781 349.671875 306.320312 349.742188 295.710938 349.730469 C 279.574219 349.714844 263.4375 349.699219 247.296875 349.683594 C 227.269531 349.667969 207.238281 349.652344 187.207031 349.636719 C 167.023438 349.625 146.84375 349.617188 126.660156 349.613281 C 110.066406 349.609375 93.46875 349.613281 76.875 349.632812 C 67.609375 349.644531 58.335938 349.632812 49.074219 349.722656 C 43.917969 349.777344 38.605469 349.976562 33.492188 349.703125 C 31.382812 349.589844 29.265625 349.542969 27.152344 349.5625 C 25.023438 349.582031 22.785156 349.6875 21.003906 350.449219 C 22.355469 354.019531 24.441406 357.464844 27.183594 360.675781 C 29.988281 363.957031 32.207031 364.53125 37.921875 364.601562 C 54.269531 364.808594 75.5 364.433594 90.273438 364.503906 C 112.511719 364.609375 313.539062 364.707031 331.914062 364.363281 C 335.488281 364.296875 339.664062 364.472656 343.140625 364.042969 C 350.246094 363.15625 352.789062 355.839844 354.574219 351.894531 C 354.671875 351.667969 354.773438 351.433594 354.671875 351.207031 C 354.523438 350.863281 353.976562 350.675781 353.476562 350.535156 C 351.582031 350.007812 349.511719 349.589844 347.382812 349.289062 " fill-opacity="1" fill-rule="nonzero"/></g><g clip-path="url(#a12547a794)"><path fill="#5a5d78" d="M 360.460938 351.320312 C 360.25 353.4375 359.550781 355.144531 357.730469 355.183594 C 355.472656 355.230469 353.21875 355.285156 350.960938 355.285156 C 348.390625 355.148438 345.828125 355.003906 343.253906 355.050781 C 324.328125 355.40625 105.332031 355.339844 81.21875 355.214844 C 65.199219 355.136719 42.183594 355.574219 24.453125 355.328125 C 17.339844 355.234375 15.464844 354.554688 14.914062 350.203125 C 14.59375 347.667969 14.722656 344.128906 15.144531 341.902344 C 15.503906 340.003906 16.980469 338.957031 21.097656 338.519531 C 26.84375 337.902344 30.660156 338.179688 36.539062 338.117188 C 46.585938 338.019531 56.640625 338.027344 66.6875 338.019531 C 84.6875 337.996094 102.683594 337.984375 120.683594 337.996094 C 131.960938 337.996094 143.238281 337.996094 154.515625 338.007812 C 165.117188 338.007812 175.726562 338.019531 186.335938 338.019531 C 196.085938 338.027344 205.832031 338.039062 215.570312 338.046875 C 227.546875 338.058594 239.519531 338.066406 251.496094 338.078125 C 269 338.089844 286.5 338.109375 303.992188 338.128906 C 317.210938 338.140625 330.304688 338.039062 343.488281 337.882812 C 347.691406 337.832031 351.875 337.847656 356.074219 337.933594 C 356.917969 337.953125 357.804688 337.984375 358.507812 338.445312 C 360.144531 339.523438 360.199219 342.234375 360.214844 343.964844 C 360.234375 345.386719 360.730469 348.671875 360.460938 351.320312 " fill-opacity="1" fill-rule="nonzero"/></g><path fill="#ffffff" d="M 262.476562 152.171875 C 262.34375 153.28125 261.917969 154.179688 260.804688 154.199219 C 259.429688 154.222656 258.050781 154.253906 256.671875 154.253906 C 255.101562 154.183594 253.535156 154.105469 251.964844 154.132812 C 240.40625 154.316406 106.644531 154.28125 91.917969 154.21875 C 82.136719 154.171875 68.074219 154.40625 57.246094 154.277344 C 52.902344 154.226562 51.757812 153.871094 51.421875 151.585938 C 51.226562 150.253906 51.304688 148.394531 51.5625 147.226562 C 51.78125 146.230469 52.683594 145.679688 55.195312 145.449219 C 58.707031 145.125 61.039062 145.269531 64.628906 145.238281 C 70.765625 145.183594 76.90625 145.191406 83.042969 145.183594 C 94.035156 145.175781 105.03125 145.171875 116.023438 145.175781 C 122.910156 145.175781 129.796875 145.175781 136.6875 145.179688 C 143.160156 145.179688 149.640625 145.183594 156.121094 145.183594 C 162.078125 145.191406 168.03125 145.195312 173.976562 145.199219 C 181.292969 145.207031 188.605469 145.214844 195.921875 145.214844 C 206.613281 145.222656 217.296875 145.234375 227.984375 145.246094 C 236.058594 145.25 244.054688 145.195312 252.105469 145.117188 C 254.671875 145.089844 257.230469 145.097656 259.792969 145.140625 C 260.308594 145.152344 260.851562 145.167969 261.28125 145.410156 C 262.28125 145.976562 262.3125 147.398438 262.324219 148.308594 C 262.335938 149.058594 262.636719 150.777344 262.476562 152.171875 " fill-opacity="1" fill-rule="nonzero"/><path fill="#ffffff" d="M 197.75 305.574219 C 197.660156 306.683594 197.363281 307.585938 196.59375 307.605469 C 195.636719 307.628906 194.679688 307.65625 193.726562 307.65625 C 192.636719 307.585938 191.550781 307.511719 190.460938 307.535156 C 182.445312 307.71875 89.6875 307.683594 79.472656 307.621094 C 72.6875 307.578125 62.9375 307.808594 55.429688 307.679688 C 52.414062 307.628906 51.621094 307.273438 51.386719 304.988281 C 51.253906 303.65625 51.308594 301.800781 51.484375 300.628906 C 51.636719 299.632812 52.265625 299.085938 54.007812 298.851562 C 56.441406 298.527344 58.054688 298.675781 60.546875 298.640625 C 64.800781 298.585938 69.0625 298.59375 73.316406 298.585938 C 80.941406 298.578125 88.5625 298.570312 96.1875 298.578125 C 100.964844 298.578125 105.742188 298.578125 110.519531 298.582031 C 115.007812 298.582031 119.5 298.585938 123.996094 298.585938 C 128.125 298.59375 132.253906 298.597656 136.378906 298.605469 C 141.453125 298.609375 146.523438 298.617188 151.597656 298.621094 C 159.011719 298.628906 166.421875 298.636719 173.832031 298.648438 C 179.429688 298.652344 184.976562 298.597656 190.5625 298.515625 C 192.339844 298.492188 194.113281 298.5 195.894531 298.546875 C 196.246094 298.554688 196.625 298.570312 196.921875 298.8125 C 197.617188 299.382812 197.640625 300.804688 197.648438 301.714844 C 197.652344 302.460938 197.863281 304.183594 197.75 305.574219 " fill-opacity="1" fill-rule="nonzero"/><path fill="#333a5b" d="M 215.570312 338.046875 C 214.566406 341.132812 213.046875 344.203125 210.058594 345.207031 C 208.871094 345.59375 207.589844 345.605469 206.335938 345.59375 C 192.65625 345.574219 178.96875 345.554688 165.289062 345.535156 C 163.402344 345.535156 161.453125 345.511719 159.738281 344.722656 C 157.101562 343.503906 155.644531 340.753906 154.515625 338.007812 C 165.117188 338.007812 175.726562 338.019531 186.335938 338.019531 C 196.085938 338.027344 205.832031 338.039062 215.570312 338.046875 " fill-opacity="1" fill-rule="nonzero"/><path fill="#333a5b" d="M 31.339844 344.152344 C 29.875 344.398438 28.542969 345.515625 28.441406 347.585938 C 28.40625 348.390625 28.546875 349.230469 29.027344 349.878906 C 29.414062 350.398438 30 350.75 30.621094 350.929688 C 32.6875 351.519531 35.082031 349.878906 35.28125 347.742188 C 35.527344 345.082031 33.316406 343.824219 31.339844 344.152344 " fill-opacity="1" fill-rule="nonzero"/><path fill="#333a5b" d="M 45.300781 344.152344 C 43.835938 344.398438 42.5 345.515625 42.402344 347.585938 C 42.363281 348.390625 42.507812 349.230469 42.988281 349.878906 C 43.375 350.398438 43.957031 350.75 44.582031 350.929688 C 46.648438 351.519531 49.042969 349.878906 49.238281 347.742188 C 49.484375 345.082031 47.273438 343.824219 45.300781 344.152344 " fill-opacity="1" fill-rule="nonzero"/><path fill="#ffffff" d="M 133.671875 282.085938 C 133.621094 281.9375 133.460938 281.863281 133.316406 281.800781 C 131.5625 281.0625 128.609375 279.628906 127.390625 279.28125 C 127.171875 279.21875 126.949219 279.375 126.925781 279.597656 C 126.8125 280.683594 126.730469 283.1875 126.691406 284.5 C 126.679688 284.890625 127.074219 285.175781 127.441406 285.027344 C 129.109375 284.347656 131.597656 283.285156 133.320312 282.488281 C 133.570312 282.371094 133.765625 282.34375 133.671875 282.085938 " fill-opacity="1" fill-rule="nonzero"/></svg>