<svg xmlns="http://www.w3.org/2000/svg" xmlns:xlink="http://www.w3.org/1999/xlink" width="394" zoomAndPan="magnify" viewBox="0 0 295.5 80.249996" height="107" preserveAspectRatio="xMidYMid meet" version="1.0"><defs><g/><clipPath id="55a6941699"><path d="M 1.339844 12 L 33 12 L 33 75 L 1.339844 75 Z M 1.339844 12 " clip-rule="nonzero"/></clipPath><clipPath id="43979fa012"><path d="M 32 12 L 62.792969 12 L 62.792969 41 L 32 41 Z M 32 12 " clip-rule="nonzero"/></clipPath><clipPath id="651aded5b5"><path d="M 11.371094 18.738281 L 54.46875 18.738281 L 54.46875 61.835938 L 11.371094 61.835938 Z M 11.371094 18.738281 " clip-rule="nonzero"/></clipPath></defs><path fill="#004aad" d="M 32.992188 29.585938 L 37.875 29.585938 L 37.875 24.699219 L 32.992188 24.699219 L 32.992188 29.585938 " fill-opacity="1" fill-rule="nonzero"/><path fill="#004aad" d="M 26.257812 29.585938 L 31.144531 29.585938 L 31.144531 24.699219 L 26.257812 24.699219 L 26.257812 29.585938 " fill-opacity="1" fill-rule="nonzero"/><path fill="#004aad" d="M 32.992188 36.53125 L 37.875 36.53125 L 37.875 31.648438 L 32.992188 31.648438 L 32.992188 36.53125 " fill-opacity="1" fill-rule="nonzero"/><path fill="#004aad" d="M 26.257812 36.53125 L 31.144531 36.53125 L 31.144531 31.648438 L 26.257812 31.648438 L 26.257812 36.53125 " fill-opacity="1" fill-rule="nonzero"/><g clip-path="url(#55a6941699)"><path fill="#3fbb0e" d="M 4.492188 21.054688 L 19.960938 12.125 L 19.960938 13.886719 L 31.613281 13.886719 L 8.484375 27.238281 L 8.484375 54.472656 L 30.722656 67.308594 C 32.480469 68.324219 33.082031 70.574219 32.066406 72.332031 C 31.050781 74.089844 28.804688 74.691406 27.046875 73.675781 L 4.492188 60.65625 C 2.421875 59.460938 1.132812 57.230469 1.132812 54.835938 L 1.132812 26.875 C 1.132812 24.480469 2.421875 22.25 4.492188 21.054688 " fill-opacity="1" fill-rule="nonzero"/></g><g clip-path="url(#43979fa012)"><path fill="#3fbb0e" d="M 44.171875 13.886719 L 44.171875 12.125 L 59.640625 21.054688 C 61.714844 22.25 63.003906 24.480469 63.003906 26.875 L 63.003906 36.71875 C 63.003906 38.746094 61.355469 40.394531 59.328125 40.394531 C 57.296875 40.394531 55.652344 38.746094 55.652344 36.71875 L 55.652344 27.238281 L 32.519531 13.886719 L 44.171875 13.886719 " fill-opacity="1" fill-rule="nonzero"/></g><path fill="#004aad" d="M 32.066406 0 L 49.457031 5.828125 L 32.066406 11.65625 L 14.679688 5.828125 L 32.066406 0 " fill-opacity="1" fill-rule="nonzero"/><path fill="#004aad" d="M 21.433594 12.414062 L 42.703125 12.414062 L 42.703125 8.054688 L 21.433594 8.054688 L 21.433594 12.414062 " fill-opacity="1" fill-rule="nonzero"/><path fill="#004aad" d="M 17.777344 11.277344 C 17.867188 11.011719 17.84375 10.710938 17.683594 10.480469 C 17.632812 10.410156 17.601562 10.328125 17.601562 10.234375 C 17.601562 10.105469 17.660156 9.992188 17.75 9.914062 L 17.75 6.644531 L 18.308594 6.644531 L 18.308594 9.914062 C 18.398438 9.992188 18.457031 10.105469 18.457031 10.234375 C 18.457031 10.328125 18.425781 10.410156 18.375 10.480469 C 18.210938 10.710938 18.191406 11.011719 18.28125 11.277344 L 18.667969 12.414062 L 17.390625 12.414062 L 17.777344 11.277344 " fill-opacity="1" fill-rule="nonzero"/><g clip-path="url(#651aded5b5)"><path fill="#ffffff" d="M 32.9375 61.871094 C 21.046875 61.871094 11.371094 52.195312 11.371094 40.304688 C 11.371094 28.414062 21.046875 18.738281 32.9375 18.738281 C 44.832031 18.738281 54.503906 28.414062 54.503906 40.304688 C 54.503906 52.195312 44.832031 61.871094 32.9375 61.871094 Z M 32.9375 61.871094 " fill-opacity="1" fill-rule="nonzero"/></g><path fill="#004aad" d="M 26.957031 46.027344 C 26.636719 46.027344 26.316406 45.925781 26.042969 45.714844 L 20.609375 41.558594 C 20.242188 41.277344 20.023438 40.839844 20.019531 40.378906 C 20.011719 39.914062 20.222656 39.472656 20.582031 39.183594 L 25.902344 34.914062 C 26.550781 34.394531 27.5 34.496094 28.023438 35.148438 C 28.542969 35.796875 28.441406 36.746094 27.789062 37.265625 L 23.96875 40.332031 L 27.875 43.320312 C 28.535156 43.828125 28.664062 44.773438 28.15625 45.433594 C 27.859375 45.824219 27.410156 46.027344 26.957031 46.027344 Z M 26.957031 46.027344 " fill-opacity="1" fill-rule="nonzero"/><path fill="#004aad" d="M 38.921875 46.027344 C 38.46875 46.027344 38.019531 45.824219 37.722656 45.433594 C 37.214844 44.773438 37.339844 43.828125 38.003906 43.320312 L 41.90625 40.332031 L 38.085938 37.265625 C 37.4375 36.746094 37.332031 35.796875 37.855469 35.148438 C 38.375 34.496094 39.324219 34.394531 39.976562 34.914062 L 45.296875 39.183594 C 45.65625 39.472656 45.863281 39.914062 45.859375 40.378906 C 45.855469 40.839844 45.636719 41.277344 45.269531 41.558594 L 39.835938 45.714844 C 39.5625 45.925781 39.238281 46.027344 38.921875 46.027344 Z M 38.921875 46.027344 " fill-opacity="1" fill-rule="nonzero"/><path fill="#004aad" d="M 30.488281 48.914062 C 30.355469 48.914062 30.222656 48.894531 30.089844 48.859375 C 29.289062 48.640625 28.8125 47.8125 29.03125 47.007812 L 32.878906 32.808594 C 33.097656 32.003906 33.925781 31.53125 34.730469 31.75 C 35.535156 31.964844 36.007812 32.792969 35.792969 33.597656 L 31.941406 47.800781 C 31.757812 48.46875 31.152344 48.914062 30.488281 48.914062 Z M 30.488281 48.914062 " fill-opacity="1" fill-rule="nonzero"/><g fill="#004aad" fill-opacity="1"><g transform="translate(60.497885, 61.867589)"><g/></g></g><g fill="#004aad" fill-opacity="1"><g transform="translate(67.669387, 61.867589)"><g><path d="M 12.359375 0.421875 C 17.96875 0.421875 22.34375 -2.984375 23.40625 -8.171875 L 18.40625 -8.171875 C 17.515625 -5.734375 15.265625 -4.1875 12.453125 -4.1875 C 8.8125 -4.1875 6.25 -6.828125 6.25 -10.6875 C 6.25 -14.53125 8.84375 -17.1875 12.484375 -17.1875 C 15.203125 -17.1875 17.421875 -15.71875 18.25 -13.359375 L 23.25 -13.359375 C 22.03125 -18.5 17.765625 -21.78125 12.328125 -21.78125 C 5.859375 -21.78125 1.3125 -17.203125 1.3125 -10.6875 C 1.3125 -4.15625 5.859375 0.421875 12.359375 0.421875 Z M 12.359375 0.421875 "/></g></g></g><g fill="#004aad" fill-opacity="1"><g transform="translate(92.29061, 61.867589)"><g><path d="M 8.484375 0 L 13.25 0 L 21.453125 -21.359375 L 16.265625 -21.359375 L 10.890625 -6.984375 L 8.328125 -13.765625 L 5.5 -21.359375 L 0.28125 -21.359375 Z M 8.484375 0 "/></g></g></g><g fill="#004aad" fill-opacity="1"><g transform="translate(114.013427, 61.867589)"><g><path d="M 10.015625 0.421875 C 15.078125 0.421875 18.1875 -1.984375 18.1875 -6.015625 C 18.1875 -9.40625 15.953125 -11.40625 10.65625 -12.65625 C 7.390625 -13.421875 6.25 -14.25 6.25 -15.5625 C 6.25 -16.96875 7.5 -17.828125 9.546875 -17.828125 C 11.78125 -17.828125 13.125 -16.65625 13.125 -14.734375 L 17.796875 -14.734375 C 17.796875 -19.046875 14.5625 -21.78125 9.484375 -21.78125 C 4.578125 -21.78125 1.53125 -19.375 1.53125 -15.46875 C 1.53125 -12 3.875 -9.921875 8.875 -8.84375 C 11.90625 -8.203125 13.28125 -7.328125 13.28125 -5.828125 C 13.28125 -4.390625 12 -3.578125 9.984375 -3.578125 C 7.625 -3.578125 6.109375 -4.765625 6.109375 -6.8125 L 1.34375 -6.8125 C 1.34375 -2.375 4.640625 0.421875 10.015625 0.421875 Z M 10.015625 0.421875 "/></g></g></g><g fill="#2f1514" fill-opacity="1"><g transform="translate(133.573727, 61.867589)"><g/></g></g><g fill="#2f1514" fill-opacity="1"><g transform="translate(140.743476, 61.867589)"><g><path d="M 10.015625 0.421875 C 15.078125 0.421875 18.1875 -1.984375 18.1875 -6.015625 C 18.1875 -9.40625 15.953125 -11.40625 10.65625 -12.65625 C 7.390625 -13.421875 6.25 -14.25 6.25 -15.5625 C 6.25 -16.96875 7.5 -17.828125 9.546875 -17.828125 C 11.78125 -17.828125 13.125 -16.65625 13.125 -14.734375 L 17.796875 -14.734375 C 17.796875 -19.046875 14.5625 -21.78125 9.484375 -21.78125 C 4.578125 -21.78125 1.53125 -19.375 1.53125 -15.46875 C 1.53125 -12 3.875 -9.921875 8.875 -8.84375 C 11.90625 -8.203125 13.28125 -7.328125 13.28125 -5.828125 C 13.28125 -4.390625 12 -3.578125 9.984375 -3.578125 C 7.625 -3.578125 6.109375 -4.765625 6.109375 -6.8125 L 1.34375 -6.8125 C 1.34375 -2.375 4.640625 0.421875 10.015625 0.421875 Z M 10.015625 0.421875 "/></g></g></g><g fill="#2f1514" fill-opacity="1"><g transform="translate(160.300109, 61.867589)"><g><path d="M 12.359375 0.421875 C 17.96875 0.421875 22.34375 -2.984375 23.40625 -8.171875 L 18.40625 -8.171875 C 17.515625 -5.734375 15.265625 -4.1875 12.453125 -4.1875 C 8.8125 -4.1875 6.25 -6.828125 6.25 -10.6875 C 6.25 -14.53125 8.84375 -17.1875 12.484375 -17.1875 C 15.203125 -17.1875 17.421875 -15.71875 18.25 -13.359375 L 23.25 -13.359375 C 22.03125 -18.5 17.765625 -21.78125 12.328125 -21.78125 C 5.859375 -21.78125 1.3125 -17.203125 1.3125 -10.6875 C 1.3125 -4.15625 5.859375 0.421875 12.359375 0.421875 Z M 12.359375 0.421875 "/></g></g></g><g fill="#2f1514" fill-opacity="1"><g transform="translate(184.921332, 61.867589)"><g><path d="M 15.78125 0 L 20.625 0 L 20.625 -21.359375 L 15.78125 -21.359375 L 15.78125 -13.15625 L 7.421875 -13.15625 L 7.421875 -21.359375 L 2.5625 -21.359375 L 2.5625 0 L 7.421875 0 L 7.421875 -8.609375 L 15.78125 -8.609375 Z M 15.78125 0 "/></g></g></g><g fill="#2f1514" fill-opacity="1"><g transform="translate(208.108607, 61.867589)"><g><path d="M 12.6875 0.421875 C 19.375 0.421875 24.109375 -4.15625 24.109375 -10.6875 C 24.109375 -17.203125 19.375 -21.78125 12.6875 -21.78125 C 6.015625 -21.78125 1.3125 -17.203125 1.3125 -10.6875 C 1.3125 -4.15625 6.015625 0.421875 12.6875 0.421875 Z M 6.25 -10.6875 C 6.25 -14.53125 8.90625 -17.1875 12.6875 -17.1875 C 16.515625 -17.1875 19.140625 -14.53125 19.140625 -10.6875 C 19.140625 -6.828125 16.515625 -4.1875 12.6875 -4.1875 C 8.90625 -4.1875 6.25 -6.828125 6.25 -10.6875 Z M 6.25 -10.6875 "/></g></g></g><g fill="#2f1514" fill-opacity="1"><g transform="translate(233.523077, 61.867589)"><g><path d="M 12.6875 0.421875 C 19.375 0.421875 24.109375 -4.15625 24.109375 -10.6875 C 24.109375 -17.203125 19.375 -21.78125 12.6875 -21.78125 C 6.015625 -21.78125 1.3125 -17.203125 1.3125 -10.6875 C 1.3125 -4.15625 6.015625 0.421875 12.6875 0.421875 Z M 6.25 -10.6875 C 6.25 -14.53125 8.90625 -17.1875 12.6875 -17.1875 C 16.515625 -17.1875 19.140625 -14.53125 19.140625 -10.6875 C 19.140625 -6.828125 16.515625 -4.1875 12.6875 -4.1875 C 8.90625 -4.1875 6.25 -6.828125 6.25 -10.6875 Z M 6.25 -10.6875 "/></g></g></g><g fill="#2f1514" fill-opacity="1"><g transform="translate(258.937546, 61.867589)"><g><path d="M 2.5625 0 L 16.75 0 L 16.75 -4.546875 L 7.421875 -4.546875 L 7.421875 -21.359375 L 2.5625 -21.359375 Z M 2.5625 0 "/></g></g></g></svg>