<svg xmlns="http://www.w3.org/2000/svg" xmlns:xlink="http://www.w3.org/1999/xlink" width="451" zoomAndPan="magnify" viewBox="0 0 338.25 75.749997" height="101" preserveAspectRatio="xMidYMid meet" version="1.0"><defs><g/><clipPath id="b597b4d2ab"><path d="M 0.40625 12 L 32 12 L 32 75 L 0.40625 75 Z M 0.40625 12 " clip-rule="nonzero"/></clipPath><clipPath id="2a7b0a0f96"><path d="M 31 12 L 62.226562 12 L 62.226562 41 L 31 41 Z M 31 12 " clip-rule="nonzero"/></clipPath><clipPath id="a7d6c524f9"><path d="M 10.496094 18.851562 L 53.855469 18.851562 L 53.855469 62.207031 L 10.496094 62.207031 Z M 10.496094 18.851562 " clip-rule="nonzero"/></clipPath></defs><path fill="#004aad" d="M 32.246094 29.761719 L 37.160156 29.761719 L 37.160156 24.847656 L 32.246094 24.847656 L 32.246094 29.761719 " fill-opacity="1" fill-rule="nonzero"/><path fill="#004aad" d="M 25.472656 29.761719 L 30.386719 29.761719 L 30.386719 24.847656 L 25.472656 24.847656 L 25.472656 29.761719 " fill-opacity="1" fill-rule="nonzero"/><path fill="#004aad" d="M 32.246094 36.753906 L 37.160156 36.753906 L 37.160156 31.839844 L 32.246094 31.839844 L 32.246094 36.753906 " fill-opacity="1" fill-rule="nonzero"/><path fill="#004aad" d="M 25.472656 36.753906 L 30.386719 36.753906 L 30.386719 31.839844 L 25.472656 31.839844 L 25.472656 36.753906 " fill-opacity="1" fill-rule="nonzero"/><g clip-path="url(#b597b4d2ab)"><path fill="#3fbb0e" d="M 3.578125 21.179688 L 19.136719 12.195312 L 19.136719 13.96875 L 30.859375 13.96875 L 7.589844 27.402344 L 7.589844 54.800781 L 29.960938 67.714844 C 31.730469 68.738281 32.335938 71 31.316406 72.765625 C 30.296875 74.535156 28.03125 75.140625 26.265625 74.121094 L 3.578125 61.023438 C 1.492188 59.816406 0.195312 57.574219 0.195312 55.164062 L 0.195312 27.039062 C 0.195312 24.628906 1.492188 22.386719 3.578125 21.179688 " fill-opacity="1" fill-rule="nonzero"/></g><g clip-path="url(#2a7b0a0f96)"><path fill="#3fbb0e" d="M 43.492188 13.96875 L 43.492188 12.195312 L 59.054688 21.179688 C 61.140625 22.386719 62.4375 24.628906 62.4375 27.039062 L 62.4375 36.9375 C 62.4375 38.980469 60.78125 40.636719 58.738281 40.636719 C 56.695312 40.636719 55.042969 38.980469 55.042969 36.9375 L 55.042969 27.402344 L 31.773438 13.96875 L 43.492188 13.96875 " fill-opacity="1" fill-rule="nonzero"/></g><path fill="#004aad" d="M 31.316406 0 L 48.808594 5.863281 L 31.316406 11.726562 L 13.824219 5.863281 L 31.316406 0 " fill-opacity="1" fill-rule="nonzero"/><path fill="#004aad" d="M 20.617188 12.488281 L 42.015625 12.488281 L 42.015625 8.101562 L 20.617188 8.101562 L 20.617188 12.488281 " fill-opacity="1" fill-rule="nonzero"/><path fill="#004aad" d="M 16.9375 11.347656 C 17.027344 11.078125 17.007812 10.773438 16.84375 10.542969 C 16.792969 10.472656 16.765625 10.390625 16.765625 10.296875 C 16.765625 10.167969 16.824219 10.054688 16.914062 9.972656 L 16.914062 6.683594 L 17.472656 6.683594 L 17.472656 9.972656 C 17.5625 10.054688 17.621094 10.167969 17.621094 10.296875 C 17.621094 10.390625 17.59375 10.472656 17.542969 10.542969 C 17.378906 10.773438 17.355469 11.078125 17.449219 11.347656 L 17.835938 12.488281 L 16.550781 12.488281 L 16.9375 11.347656 " fill-opacity="1" fill-rule="nonzero"/><g clip-path="url(#a7d6c524f9)"><path fill="#ffffff" d="M 32.191406 62.242188 C 20.230469 62.242188 10.496094 52.511719 10.496094 40.546875 C 10.496094 28.585938 20.230469 18.851562 32.191406 18.851562 C 44.15625 18.851562 53.890625 28.585938 53.890625 40.546875 C 53.890625 52.511719 44.15625 62.242188 32.191406 62.242188 Z M 32.191406 62.242188 " fill-opacity="1" fill-rule="nonzero"/></g><path fill="#004aad" d="M 26.175781 46.304688 C 25.855469 46.304688 25.527344 46.203125 25.253906 45.992188 L 19.789062 41.808594 C 19.417969 41.523438 19.199219 41.085938 19.195312 40.621094 C 19.1875 40.15625 19.398438 39.710938 19.761719 39.421875 L 25.113281 35.125 C 25.769531 34.601562 26.722656 34.707031 27.246094 35.359375 C 27.769531 36.011719 27.667969 36.96875 27.011719 37.492188 L 23.171875 40.574219 L 27.097656 43.582031 C 27.765625 44.089844 27.890625 45.042969 27.382812 45.707031 C 27.082031 46.097656 26.632812 46.304688 26.175781 46.304688 Z M 26.175781 46.304688 " fill-opacity="1" fill-rule="nonzero"/><path fill="#004aad" d="M 38.210938 46.304688 C 37.753906 46.304688 37.304688 46.097656 37.003906 45.707031 C 36.496094 45.042969 36.621094 44.089844 37.285156 43.582031 L 41.214844 40.574219 L 37.371094 37.492188 C 36.71875 36.96875 36.613281 36.011719 37.140625 35.359375 C 37.664062 34.707031 38.617188 34.601562 39.269531 35.125 L 44.625 39.421875 C 44.988281 39.710938 45.195312 40.15625 45.191406 40.621094 C 45.183594 41.085938 44.964844 41.523438 44.597656 41.808594 L 39.132812 45.992188 C 38.855469 46.203125 38.53125 46.304688 38.210938 46.304688 Z M 38.210938 46.304688 " fill-opacity="1" fill-rule="nonzero"/><path fill="#004aad" d="M 29.726562 49.207031 C 29.59375 49.207031 29.460938 49.191406 29.328125 49.152344 C 28.519531 48.933594 28.042969 48.101562 28.261719 47.292969 L 32.132812 33.007812 C 32.351562 32.199219 33.1875 31.722656 33.996094 31.941406 C 34.804688 32.160156 35.28125 32.992188 35.0625 33.800781 L 31.191406 48.085938 C 31.007812 48.761719 30.394531 49.207031 29.726562 49.207031 Z M 29.726562 49.207031 " fill-opacity="1" fill-rule="nonzero"/><g fill="#004aad" fill-opacity="1"><g transform="translate(56.180203, 60.622161)"><g/></g></g><g fill="#004aad" fill-opacity="1"><g transform="translate(69.075145, 60.622161)"><g><path d="M 10.421875 0.359375 C 15.140625 0.359375 18.828125 -2.515625 19.71875 -6.890625 L 15.515625 -6.890625 C 14.765625 -4.828125 12.859375 -3.53125 10.5 -3.53125 C 7.4375 -3.53125 5.265625 -5.765625 5.265625 -9 C 5.265625 -12.234375 7.453125 -14.484375 10.515625 -14.484375 C 12.8125 -14.484375 14.6875 -13.25 15.375 -11.265625 L 19.59375 -11.265625 C 18.5625 -15.578125 14.96875 -18.359375 10.390625 -18.359375 C 4.9375 -18.359375 1.109375 -14.5 1.109375 -9 C 1.109375 -3.5 4.9375 0.359375 10.421875 0.359375 Z M 10.421875 0.359375 "/></g></g></g><g fill="#004aad" fill-opacity="1"><g transform="translate(96.673361, 60.622161)"><g><path d="M 7.15625 0 L 11.15625 0 L 18.078125 -18 L 13.703125 -18 L 9.1875 -5.890625 L 7.015625 -11.59375 L 4.625 -18 L 0.234375 -18 Z M 7.15625 0 "/></g></g></g><g fill="#004aad" fill-opacity="1"><g transform="translate(121.828203, 60.622161)"><g><path d="M 8.4375 0.359375 C 12.703125 0.359375 15.328125 -1.671875 15.328125 -5.0625 C 15.328125 -7.921875 13.453125 -9.625 8.96875 -10.671875 C 6.21875 -11.3125 5.265625 -12.015625 5.265625 -13.109375 C 5.265625 -14.296875 6.328125 -15.015625 8.046875 -15.015625 C 9.921875 -15.015625 11.0625 -14.046875 11.0625 -12.421875 L 15 -12.421875 C 15 -16.046875 12.265625 -18.359375 8 -18.359375 C 3.859375 -18.359375 1.28125 -16.328125 1.28125 -13.046875 C 1.28125 -10.109375 3.265625 -8.359375 7.484375 -7.453125 C 10.03125 -6.921875 11.1875 -6.171875 11.1875 -4.90625 C 11.1875 -3.703125 10.109375 -3.015625 8.40625 -3.015625 C 6.421875 -3.015625 5.140625 -4.015625 5.140625 -5.734375 L 1.125 -5.734375 C 1.125 -2 3.90625 0.359375 8.4375 0.359375 Z M 8.4375 0.359375 "/></g></g></g><g fill="#2f1514" fill-opacity="1"><g transform="translate(145.159975, 60.622161)"><g/></g></g><g fill="#2f1514" fill-opacity="1"><g transform="translate(158.046487, 60.622161)"><g><path d="M 8.4375 0.359375 C 12.703125 0.359375 15.328125 -1.671875 15.328125 -5.0625 C 15.328125 -7.921875 13.453125 -9.625 8.96875 -10.671875 C 6.21875 -11.3125 5.265625 -12.015625 5.265625 -13.109375 C 5.265625 -14.296875 6.328125 -15.015625 8.046875 -15.015625 C 9.921875 -15.015625 11.0625 -14.046875 11.0625 -12.421875 L 15 -12.421875 C 15 -16.046875 12.265625 -18.359375 8 -18.359375 C 3.859375 -18.359375 1.28125 -16.328125 1.28125 -13.046875 C 1.28125 -10.109375 3.265625 -8.359375 7.484375 -7.453125 C 10.03125 -6.921875 11.1875 -6.171875 11.1875 -4.90625 C 11.1875 -3.703125 10.109375 -3.015625 8.40625 -3.015625 C 6.421875 -3.015625 5.140625 -4.015625 5.140625 -5.734375 L 1.125 -5.734375 C 1.125 -2 3.90625 0.359375 8.4375 0.359375 Z M 8.4375 0.359375 "/></g></g></g><g fill="#2f1514" fill-opacity="1"><g transform="translate(181.375224, 60.622161)"><g><path d="M 10.421875 0.359375 C 15.140625 0.359375 18.828125 -2.515625 19.71875 -6.890625 L 15.515625 -6.890625 C 14.765625 -4.828125 12.859375 -3.53125 10.5 -3.53125 C 7.4375 -3.53125 5.265625 -5.765625 5.265625 -9 C 5.265625 -12.234375 7.453125 -14.484375 10.515625 -14.484375 C 12.8125 -14.484375 14.6875 -13.25 15.375 -11.265625 L 19.59375 -11.265625 C 18.5625 -15.578125 14.96875 -18.359375 10.390625 -18.359375 C 4.9375 -18.359375 1.109375 -14.5 1.109375 -9 C 1.109375 -3.5 4.9375 0.359375 10.421875 0.359375 Z M 10.421875 0.359375 "/></g></g></g><g fill="#2f1514" fill-opacity="1"><g transform="translate(208.973443, 60.622161)"><g><path d="M 13.296875 0 L 17.390625 0 L 17.390625 -18 L 13.296875 -18 L 13.296875 -11.078125 L 6.25 -11.078125 L 6.25 -18 L 2.15625 -18 L 2.15625 0 L 6.25 0 L 6.25 -7.25 L 13.296875 -7.25 Z M 13.296875 0 "/></g></g></g><g fill="#2f1514" fill-opacity="1"><g transform="translate(235.362827, 60.622161)"><g><path d="M 10.703125 0.359375 C 16.328125 0.359375 20.3125 -3.5 20.3125 -9 C 20.3125 -14.5 16.328125 -18.359375 10.703125 -18.359375 C 5.0625 -18.359375 1.109375 -14.5 1.109375 -9 C 1.109375 -3.5 5.0625 0.359375 10.703125 0.359375 Z M 5.265625 -9 C 5.265625 -12.234375 7.515625 -14.484375 10.703125 -14.484375 C 13.90625 -14.484375 16.125 -12.234375 16.125 -9 C 16.125 -5.765625 13.90625 -3.53125 10.703125 -3.53125 C 7.515625 -3.53125 5.265625 -5.765625 5.265625 -9 Z M 5.265625 -9 "/></g></g></g><g fill="#2f1514" fill-opacity="1"><g transform="translate(263.629758, 60.622161)"><g><path d="M 10.703125 0.359375 C 16.328125 0.359375 20.3125 -3.5 20.3125 -9 C 20.3125 -14.5 16.328125 -18.359375 10.703125 -18.359375 C 5.0625 -18.359375 1.109375 -14.5 1.109375 -9 C 1.109375 -3.5 5.0625 0.359375 10.703125 0.359375 Z M 5.265625 -9 C 5.265625 -12.234375 7.515625 -14.484375 10.703125 -14.484375 C 13.90625 -14.484375 16.125 -12.234375 16.125 -9 C 16.125 -5.765625 13.90625 -3.53125 10.703125 -3.53125 C 7.515625 -3.53125 5.265625 -5.765625 5.265625 -9 Z M 5.265625 -9 "/></g></g></g><g fill="#2f1514" fill-opacity="1"><g transform="translate(291.896689, 60.622161)"><g><path d="M 2.15625 0 L 14.125 0 L 14.125 -3.828125 L 6.25 -3.828125 L 6.25 -18 L 2.15625 -18 Z M 2.15625 0 "/></g></g></g></svg>