<svg xmlns="http://www.w3.org/2000/svg" xmlns:xlink="http://www.w3.org/1999/xlink" width="367" zoomAndPan="magnify" viewBox="0 0 275.25 75.749997" height="101" preserveAspectRatio="xMidYMid meet" version="1.0"><defs><g/><clipPath id="4e0c094fdc"><path d="M 0.300781 12 L 32 12 L 32 75 L 0.300781 75 Z M 0.300781 12 " clip-rule="nonzero"/></clipPath><clipPath id="376fd053e4"><path d="M 31 12 L 62.125 12 L 62.125 41 L 31 41 Z M 31 12 " clip-rule="nonzero"/></clipPath><clipPath id="30f5e4c85f"><path d="M 10.394531 18.851562 L 53.75 18.851562 L 53.75 62.207031 L 10.394531 62.207031 Z M 10.394531 18.851562 " clip-rule="nonzero"/></clipPath></defs><path fill="#004aad" d="M 32.140625 29.761719 L 37.054688 29.761719 L 37.054688 24.847656 L 32.140625 24.847656 L 32.140625 29.761719 " fill-opacity="1" fill-rule="nonzero"/><path fill="#004aad" d="M 25.371094 29.761719 L 30.285156 29.761719 L 30.285156 24.847656 L 25.371094 24.847656 L 25.371094 29.761719 " fill-opacity="1" fill-rule="nonzero"/><path fill="#004aad" d="M 32.140625 36.753906 L 37.054688 36.753906 L 37.054688 31.839844 L 32.140625 31.839844 L 32.140625 36.753906 " fill-opacity="1" fill-rule="nonzero"/><path fill="#004aad" d="M 25.371094 36.753906 L 30.285156 36.753906 L 30.285156 31.839844 L 25.371094 31.839844 L 25.371094 36.753906 " fill-opacity="1" fill-rule="nonzero"/><g clip-path="url(#4e0c094fdc)"><path fill="#3fbb0e" d="M 3.472656 21.179688 L 19.035156 12.195312 L 19.035156 13.96875 L 30.757812 13.96875 L 7.488281 27.402344 L 7.488281 54.800781 L 29.859375 67.714844 C 31.628906 68.738281 32.234375 71 31.210938 72.765625 C 30.191406 74.535156 27.929688 75.140625 26.160156 74.121094 L 3.472656 61.023438 C 1.386719 59.816406 0.0898438 57.574219 0.0898438 55.164062 L 0.0898438 27.039062 C 0.0898438 24.628906 1.386719 22.386719 3.472656 21.179688 " fill-opacity="1" fill-rule="nonzero"/></g><g clip-path="url(#376fd053e4)"><path fill="#3fbb0e" d="M 43.390625 13.96875 L 43.390625 12.195312 L 58.953125 21.179688 C 61.039062 22.386719 62.335938 24.628906 62.335938 27.039062 L 62.335938 36.9375 C 62.335938 38.980469 60.679688 40.636719 58.636719 40.636719 C 56.59375 40.636719 54.9375 38.980469 54.9375 36.9375 L 54.9375 27.402344 L 31.667969 13.96875 L 43.390625 13.96875 " fill-opacity="1" fill-rule="nonzero"/></g><path fill="#004aad" d="M 31.210938 0 L 48.707031 5.863281 L 31.210938 11.726562 L 13.71875 5.863281 L 31.210938 0 " fill-opacity="1" fill-rule="nonzero"/><path fill="#004aad" d="M 20.515625 12.488281 L 41.910156 12.488281 L 41.910156 8.101562 L 20.515625 8.101562 L 20.515625 12.488281 " fill-opacity="1" fill-rule="nonzero"/><path fill="#004aad" d="M 16.835938 11.347656 C 16.925781 11.078125 16.90625 10.773438 16.742188 10.542969 C 16.691406 10.472656 16.660156 10.390625 16.660156 10.296875 C 16.660156 10.167969 16.71875 10.054688 16.808594 9.972656 L 16.808594 6.683594 L 17.371094 6.683594 L 17.371094 9.972656 C 17.460938 10.054688 17.519531 10.167969 17.519531 10.296875 C 17.519531 10.390625 17.488281 10.472656 17.4375 10.542969 C 17.273438 10.773438 17.253906 11.078125 17.34375 11.347656 L 17.734375 12.488281 L 16.445312 12.488281 L 16.835938 11.347656 " fill-opacity="1" fill-rule="nonzero"/><g clip-path="url(#30f5e4c85f)"><path fill="#ffffff" d="M 32.089844 62.242188 C 20.125 62.242188 10.394531 52.511719 10.394531 40.546875 C 10.394531 28.585938 20.125 18.851562 32.089844 18.851562 C 44.050781 18.851562 53.785156 28.585938 53.785156 40.546875 C 53.785156 52.511719 44.050781 62.242188 32.089844 62.242188 Z M 32.089844 62.242188 " fill-opacity="1" fill-rule="nonzero"/></g><path fill="#004aad" d="M 26.070312 46.304688 C 25.75 46.304688 25.425781 46.203125 25.152344 45.992188 L 19.6875 41.808594 C 19.316406 41.523438 19.097656 41.085938 19.089844 40.621094 C 19.085938 40.15625 19.292969 39.710938 19.660156 39.421875 L 25.011719 35.125 C 25.664062 34.601562 26.617188 34.707031 27.144531 35.359375 C 27.667969 36.011719 27.5625 36.96875 26.910156 37.492188 L 23.066406 40.574219 L 26.996094 43.582031 C 27.660156 44.089844 27.785156 45.042969 27.277344 45.707031 C 26.980469 46.097656 26.527344 46.304688 26.070312 46.304688 Z M 26.070312 46.304688 " fill-opacity="1" fill-rule="nonzero"/><path fill="#004aad" d="M 38.105469 46.304688 C 37.652344 46.304688 37.199219 46.097656 36.902344 45.707031 C 36.390625 45.042969 36.519531 44.089844 37.183594 43.582031 L 41.113281 40.574219 L 37.269531 37.492188 C 36.617188 36.96875 36.511719 36.011719 37.035156 35.359375 C 37.558594 34.707031 38.515625 34.601562 39.167969 35.125 L 44.519531 39.421875 C 44.882812 39.710938 45.09375 40.15625 45.085938 40.621094 C 45.082031 41.085938 44.863281 41.523438 44.492188 41.808594 L 39.027344 45.992188 C 38.753906 46.203125 38.429688 46.304688 38.105469 46.304688 Z M 38.105469 46.304688 " fill-opacity="1" fill-rule="nonzero"/><path fill="#004aad" d="M 29.621094 49.207031 C 29.492188 49.207031 29.359375 49.191406 29.226562 49.152344 C 28.417969 48.933594 27.9375 48.101562 28.15625 47.292969 L 32.03125 33.007812 C 32.25 32.199219 33.082031 31.722656 33.890625 31.941406 C 34.699219 32.160156 35.179688 32.992188 34.957031 33.800781 L 31.085938 48.085938 C 30.902344 48.761719 30.289062 49.207031 29.621094 49.207031 Z M 29.621094 49.207031 " fill-opacity="1" fill-rule="nonzero"/><g fill="#004aad" fill-opacity="1"><g transform="translate(56.076583, 60.622161)"><g/></g></g><g fill="#004aad" fill-opacity="1"><g transform="translate(62.126927, 60.622161)"><g><path d="M 10.421875 0.359375 C 15.140625 0.359375 18.828125 -2.515625 19.71875 -6.890625 L 15.515625 -6.890625 C 14.765625 -4.828125 12.859375 -3.53125 10.5 -3.53125 C 7.4375 -3.53125 5.265625 -5.765625 5.265625 -9 C 5.265625 -12.234375 7.453125 -14.484375 10.515625 -14.484375 C 12.8125 -14.484375 14.6875 -13.25 15.375 -11.265625 L 19.59375 -11.265625 C 18.5625 -15.578125 14.96875 -18.359375 10.390625 -18.359375 C 4.9375 -18.359375 1.109375 -14.5 1.109375 -9 C 1.109375 -3.5 4.9375 0.359375 10.421875 0.359375 Z M 10.421875 0.359375 "/></g></g></g><g fill="#004aad" fill-opacity="1"><g transform="translate(82.88277, 60.622161)"><g><path d="M 7.15625 0 L 11.15625 0 L 18.078125 -18 L 13.703125 -18 L 9.1875 -5.890625 L 7.015625 -11.59375 L 4.625 -18 L 0.234375 -18 Z M 7.15625 0 "/></g></g></g><g fill="#004aad" fill-opacity="1"><g transform="translate(101.195239, 60.622161)"><g><path d="M 8.4375 0.359375 C 12.703125 0.359375 15.328125 -1.671875 15.328125 -5.0625 C 15.328125 -7.921875 13.453125 -9.625 8.96875 -10.671875 C 6.21875 -11.3125 5.265625 -12.015625 5.265625 -13.109375 C 5.265625 -14.296875 6.328125 -15.015625 8.046875 -15.015625 C 9.921875 -15.015625 11.0625 -14.046875 11.0625 -12.421875 L 15 -12.421875 C 15 -16.046875 12.265625 -18.359375 8 -18.359375 C 3.859375 -18.359375 1.28125 -16.328125 1.28125 -13.046875 C 1.28125 -10.109375 3.265625 -8.359375 7.484375 -7.453125 C 10.03125 -6.921875 11.1875 -6.171875 11.1875 -4.90625 C 11.1875 -3.703125 10.109375 -3.015625 8.40625 -3.015625 C 6.421875 -3.015625 5.140625 -4.015625 5.140625 -5.734375 L 1.125 -5.734375 C 1.125 -2 3.90625 0.359375 8.4375 0.359375 Z M 8.4375 0.359375 "/></g></g></g><g fill="#000000" fill-opacity="1"><g transform="translate(129.25194, 60.622161)"><g><path d="M 8.4375 0.359375 C 12.703125 0.359375 15.328125 -1.671875 15.328125 -5.0625 C 15.328125 -7.921875 13.453125 -9.625 8.96875 -10.671875 C 6.21875 -11.3125 5.265625 -12.015625 5.265625 -13.109375 C 5.265625 -14.296875 6.328125 -15.015625 8.046875 -15.015625 C 9.921875 -15.015625 11.0625 -14.046875 11.0625 -12.421875 L 15 -12.421875 C 15 -16.046875 12.265625 -18.359375 8 -18.359375 C 3.859375 -18.359375 1.28125 -16.328125 1.28125 -13.046875 C 1.28125 -10.109375 3.265625 -8.359375 7.484375 -7.453125 C 10.03125 -6.921875 11.1875 -6.171875 11.1875 -4.90625 C 11.1875 -3.703125 10.109375 -3.015625 8.40625 -3.015625 C 6.421875 -3.015625 5.140625 -4.015625 5.140625 -5.734375 L 1.125 -5.734375 C 1.125 -2 3.90625 0.359375 8.4375 0.359375 Z M 8.4375 0.359375 "/></g></g></g><g fill="#000000" fill-opacity="1"><g transform="translate(150.008357, 60.622161)"><g><path d="M 10.421875 0.359375 C 15.140625 0.359375 18.828125 -2.515625 19.71875 -6.890625 L 15.515625 -6.890625 C 14.765625 -4.828125 12.859375 -3.53125 10.5 -3.53125 C 7.4375 -3.53125 5.265625 -5.765625 5.265625 -9 C 5.265625 -12.234375 7.453125 -14.484375 10.515625 -14.484375 C 12.8125 -14.484375 14.6875 -13.25 15.375 -11.265625 L 19.59375 -11.265625 C 18.5625 -15.578125 14.96875 -18.359375 10.390625 -18.359375 C 4.9375 -18.359375 1.109375 -14.5 1.109375 -9 C 1.109375 -3.5 4.9375 0.359375 10.421875 0.359375 Z M 10.421875 0.359375 "/></g></g></g><g fill="#000000" fill-opacity="1"><g transform="translate(175.034251, 60.622161)"><g><path d="M 13.296875 0 L 17.390625 0 L 17.390625 -18 L 13.296875 -18 L 13.296875 -11.078125 L 6.25 -11.078125 L 6.25 -18 L 2.15625 -18 L 2.15625 0 L 6.25 0 L 6.25 -7.25 L 13.296875 -7.25 Z M 13.296875 0 "/></g></g></g><g fill="#000000" fill-opacity="1"><g transform="translate(198.851316, 60.622161)"><g><path d="M 10.703125 0.359375 C 16.328125 0.359375 20.3125 -3.5 20.3125 -9 C 20.3125 -14.5 16.328125 -18.359375 10.703125 -18.359375 C 5.0625 -18.359375 1.109375 -14.5 1.109375 -9 C 1.109375 -3.5 5.0625 0.359375 10.703125 0.359375 Z M 5.265625 -9 C 5.265625 -12.234375 7.515625 -14.484375 10.703125 -14.484375 C 13.90625 -14.484375 16.125 -12.234375 16.125 -9 C 16.125 -5.765625 13.90625 -3.53125 10.703125 -3.53125 C 7.515625 -3.53125 5.265625 -5.765625 5.265625 -9 Z M 5.265625 -9 "/></g></g></g><g fill="#000000" fill-opacity="1"><g transform="translate(224.545922, 60.622161)"><g><path d="M 10.703125 0.359375 C 16.328125 0.359375 20.3125 -3.5 20.3125 -9 C 20.3125 -14.5 16.328125 -18.359375 10.703125 -18.359375 C 5.0625 -18.359375 1.109375 -14.5 1.109375 -9 C 1.109375 -3.5 5.0625 0.359375 10.703125 0.359375 Z M 5.265625 -9 C 5.265625 -12.234375 7.515625 -14.484375 10.703125 -14.484375 C 13.90625 -14.484375 16.125 -12.234375 16.125 -9 C 16.125 -5.765625 13.90625 -3.53125 10.703125 -3.53125 C 7.515625 -3.53125 5.265625 -5.765625 5.265625 -9 Z M 5.265625 -9 "/></g></g></g><g fill="#000000" fill-opacity="1"><g transform="translate(250.240528, 60.622161)"><g><path d="M 2.15625 0 L 14.125 0 L 14.125 -3.828125 L 6.25 -3.828125 L 6.25 -18 L 2.15625 -18 Z M 2.15625 0 "/></g></g></g></svg>