<svg xmlns="http://www.w3.org/2000/svg" xmlns:xlink="http://www.w3.org/1999/xlink" width="385" zoomAndPan="magnify" viewBox="0 0 288.75 72.749999" height="97" preserveAspectRatio="xMidYMid meet" version="1.0"><defs><g/><clipPath id="e82a46fe88"><path d="M 0.371094 10 L 28 10 L 28 64 L 0.371094 64 Z M 0.371094 10 " clip-rule="nonzero"/></clipPath><clipPath id="87e8b8df9c"><path d="M 27 10 L 53.367188 10 L 53.367188 35 L 27 35 Z M 27 10 " clip-rule="nonzero"/></clipPath><clipPath id="702b0ed7b9"><path d="M 9.148438 16.042969 L 45.773438 16.042969 L 45.773438 52.667969 L 9.148438 52.667969 Z M 9.148438 16.042969 " clip-rule="nonzero"/></clipPath></defs><path fill="#004aad" d="M 27.660156 25.328125 L 31.839844 25.328125 L 31.839844 21.144531 L 27.660156 21.144531 L 27.660156 25.328125 " fill-opacity="1" fill-rule="nonzero"/><path fill="#004aad" d="M 21.894531 25.328125 L 26.078125 25.328125 L 26.078125 21.144531 L 21.894531 21.144531 L 21.894531 25.328125 " fill-opacity="1" fill-rule="nonzero"/><path fill="#004aad" d="M 27.660156 31.277344 L 31.839844 31.277344 L 31.839844 27.09375 L 27.660156 27.09375 L 27.660156 31.277344 " fill-opacity="1" fill-rule="nonzero"/><path fill="#004aad" d="M 21.894531 31.277344 L 26.078125 31.277344 L 26.078125 27.09375 L 21.894531 27.09375 L 21.894531 31.277344 " fill-opacity="1" fill-rule="nonzero"/><g clip-path="url(#e82a46fe88)"><path fill="#3fbb0e" d="M 3.261719 18.023438 L 16.503906 10.378906 L 16.503906 11.886719 L 26.480469 11.886719 L 6.679688 23.320312 L 6.679688 46.632812 L 25.71875 57.625 C 27.222656 58.492188 27.738281 60.417969 26.867188 61.921875 C 26 63.429688 24.074219 63.945312 22.570312 63.074219 L 3.261719 51.925781 C 1.488281 50.902344 0.386719 48.992188 0.386719 46.941406 L 0.386719 23.007812 C 0.386719 20.957031 1.488281 19.050781 3.261719 18.023438 " fill-opacity="1" fill-rule="nonzero"/></g><g clip-path="url(#87e8b8df9c)"><path fill="#3fbb0e" d="M 37.230469 11.886719 L 37.230469 10.378906 L 50.472656 18.023438 C 52.25 19.050781 53.351562 20.957031 53.351562 23.007812 L 53.351562 31.433594 C 53.351562 33.171875 51.941406 34.582031 50.203125 34.582031 C 48.46875 34.582031 47.058594 33.171875 47.058594 31.433594 L 47.058594 23.320312 L 27.257812 11.886719 L 37.230469 11.886719 " fill-opacity="1" fill-rule="nonzero"/></g><path fill="#004aad" d="M 26.867188 0 L 41.753906 4.988281 L 26.867188 9.980469 L 11.980469 4.988281 L 26.867188 0 " fill-opacity="1" fill-rule="nonzero"/><path fill="#004aad" d="M 17.765625 10.628906 L 35.972656 10.628906 L 35.972656 6.894531 L 17.765625 6.894531 L 17.765625 10.628906 " fill-opacity="1" fill-rule="nonzero"/><path fill="#004aad" d="M 14.632812 9.65625 C 14.710938 9.425781 14.695312 9.167969 14.554688 8.972656 C 14.511719 8.914062 14.484375 8.839844 14.484375 8.761719 C 14.484375 8.652344 14.535156 8.554688 14.613281 8.488281 L 14.613281 5.6875 L 15.089844 5.6875 L 15.089844 8.488281 C 15.167969 8.554688 15.214844 8.652344 15.214844 8.761719 C 15.214844 8.839844 15.191406 8.914062 15.148438 8.972656 C 15.007812 9.167969 14.988281 9.425781 15.066406 9.65625 L 15.398438 10.628906 L 14.304688 10.628906 L 14.632812 9.65625 " fill-opacity="1" fill-rule="nonzero"/><g clip-path="url(#702b0ed7b9)"><path fill="#ffffff" d="M 27.613281 52.972656 C 17.429688 52.972656 9.148438 44.691406 9.148438 34.507812 C 9.148438 24.328125 17.429688 16.042969 27.613281 16.042969 C 37.792969 16.042969 46.078125 24.328125 46.078125 34.507812 C 46.078125 44.691406 37.792969 52.972656 27.613281 52.972656 Z M 27.613281 52.972656 " fill-opacity="1" fill-rule="nonzero"/></g><path fill="#004aad" d="M 22.492188 39.40625 C 22.21875 39.40625 21.941406 39.320312 21.707031 39.140625 L 17.058594 35.582031 C 16.742188 35.339844 16.554688 34.96875 16.550781 34.570312 C 16.546875 34.175781 16.722656 33.796875 17.035156 33.550781 L 21.589844 29.894531 C 22.144531 29.449219 22.957031 29.539062 23.402344 30.09375 C 23.847656 30.648438 23.761719 31.460938 23.203125 31.90625 L 19.933594 34.53125 L 23.277344 37.089844 C 23.84375 37.523438 23.949219 38.335938 23.515625 38.902344 C 23.261719 39.234375 22.878906 39.40625 22.492188 39.40625 Z M 22.492188 39.40625 " fill-opacity="1" fill-rule="nonzero"/><path fill="#004aad" d="M 32.734375 39.40625 C 32.34375 39.40625 31.960938 39.234375 31.707031 38.902344 C 31.273438 38.335938 31.382812 37.523438 31.949219 37.089844 L 35.289062 34.53125 L 32.019531 31.90625 C 31.464844 31.460938 31.375 30.648438 31.820312 30.09375 C 32.269531 29.539062 33.082031 29.449219 33.636719 29.894531 L 38.191406 33.550781 C 38.5 33.796875 38.679688 34.175781 38.675781 34.570312 C 38.667969 34.96875 38.484375 35.339844 38.167969 35.582031 L 33.515625 39.140625 C 33.28125 39.320312 33.007812 39.40625 32.734375 39.40625 Z M 32.734375 39.40625 " fill-opacity="1" fill-rule="nonzero"/><path fill="#004aad" d="M 25.511719 41.878906 C 25.402344 41.878906 25.289062 41.863281 25.175781 41.832031 C 24.488281 41.648438 24.078125 40.9375 24.265625 40.25 L 27.5625 28.09375 C 27.75 27.402344 28.457031 26.996094 29.144531 27.183594 C 29.835938 27.371094 30.242188 28.078125 30.054688 28.765625 L 26.757812 40.925781 C 26.601562 41.5 26.082031 41.878906 25.511719 41.878906 Z M 25.511719 41.878906 " fill-opacity="1" fill-rule="nonzero"/><g fill="#004aad" fill-opacity="1"><g transform="translate(53.370175, 54.757632)"><g/></g></g><g fill="#004aad" fill-opacity="1"><g transform="translate(60.583913, 54.757632)"><g><path d="M 12.4375 0.4375 C 18.078125 0.4375 22.46875 -3.015625 23.546875 -8.234375 L 18.515625 -8.234375 C 17.625 -5.765625 15.34375 -4.203125 12.53125 -4.203125 C 8.875 -4.203125 6.296875 -6.875 6.296875 -10.75 C 6.296875 -14.609375 8.90625 -17.28125 12.5625 -17.28125 C 15.296875 -17.28125 17.53125 -15.8125 18.359375 -13.453125 L 23.390625 -13.453125 C 22.171875 -18.609375 17.875 -21.921875 12.40625 -21.921875 C 5.890625 -21.921875 1.3125 -17.3125 1.3125 -10.75 C 1.3125 -4.171875 5.890625 0.4375 12.4375 0.4375 Z M 12.4375 0.4375 "/></g></g></g><g fill="#004aad" fill-opacity="1"><g transform="translate(85.350137, 54.757632)"><g><path d="M 8.53125 0 L 13.328125 0 L 21.578125 -21.484375 L 16.359375 -21.484375 L 10.96875 -7.03125 L 8.375 -13.84375 L 5.53125 -21.484375 L 0.28125 -21.484375 Z M 8.53125 0 "/></g></g></g><g fill="#004aad" fill-opacity="1"><g transform="translate(107.200886, 54.757632)"><g><path d="M 10.078125 0.4375 C 15.171875 0.4375 18.296875 -2 18.296875 -6.046875 C 18.296875 -9.453125 16.0625 -11.484375 10.71875 -12.734375 C 7.4375 -13.515625 6.296875 -14.34375 6.296875 -15.65625 C 6.296875 -17.078125 7.546875 -17.9375 9.609375 -17.9375 C 11.84375 -17.9375 13.203125 -16.765625 13.203125 -14.828125 L 17.90625 -14.828125 C 17.90625 -19.15625 14.640625 -21.921875 9.546875 -21.921875 C 4.609375 -21.921875 1.53125 -19.5 1.53125 -15.5625 C 1.53125 -12.0625 3.90625 -9.984375 8.9375 -8.90625 C 11.96875 -8.265625 13.359375 -7.375 13.359375 -5.859375 C 13.359375 -4.421875 12.0625 -3.59375 10.046875 -3.59375 C 7.671875 -3.59375 6.140625 -4.796875 6.140625 -6.84375 L 1.34375 -6.84375 C 1.34375 -2.390625 4.671875 0.4375 10.078125 0.4375 Z M 10.078125 0.4375 "/></g></g></g><g fill="#2f1514" fill-opacity="1"><g transform="translate(126.876384, 54.757632)"><g/></g></g><g fill="#2f1514" fill-opacity="1"><g transform="translate(134.088357, 54.757632)"><g><path d="M 10.078125 0.4375 C 15.171875 0.4375 18.296875 -2 18.296875 -6.046875 C 18.296875 -9.453125 16.0625 -11.484375 10.71875 -12.734375 C 7.4375 -13.515625 6.296875 -14.34375 6.296875 -15.65625 C 6.296875 -17.078125 7.546875 -17.9375 9.609375 -17.9375 C 11.84375 -17.9375 13.203125 -16.765625 13.203125 -14.828125 L 17.90625 -14.828125 C 17.90625 -19.15625 14.640625 -21.921875 9.546875 -21.921875 C 4.609375 -21.921875 1.53125 -19.5 1.53125 -15.5625 C 1.53125 -12.0625 3.90625 -9.984375 8.9375 -8.90625 C 11.96875 -8.265625 13.359375 -7.375 13.359375 -5.859375 C 13.359375 -4.421875 12.0625 -3.59375 10.046875 -3.59375 C 7.671875 -3.59375 6.140625 -4.796875 6.140625 -6.84375 L 1.34375 -6.84375 C 1.34375 -2.390625 4.671875 0.4375 10.078125 0.4375 Z M 10.078125 0.4375 "/></g></g></g><g fill="#2f1514" fill-opacity="1"><g transform="translate(153.760165, 54.757632)"><g><path d="M 12.4375 0.4375 C 18.078125 0.4375 22.46875 -3.015625 23.546875 -8.234375 L 18.515625 -8.234375 C 17.625 -5.765625 15.34375 -4.203125 12.53125 -4.203125 C 8.875 -4.203125 6.296875 -6.875 6.296875 -10.75 C 6.296875 -14.609375 8.90625 -17.28125 12.5625 -17.28125 C 15.296875 -17.28125 17.53125 -15.8125 18.359375 -13.453125 L 23.390625 -13.453125 C 22.171875 -18.609375 17.875 -21.921875 12.40625 -21.921875 C 5.890625 -21.921875 1.3125 -17.3125 1.3125 -10.75 C 1.3125 -4.171875 5.890625 0.4375 12.4375 0.4375 Z M 12.4375 0.4375 "/></g></g></g><g fill="#2f1514" fill-opacity="1"><g transform="translate(178.52639, 54.757632)"><g><path d="M 15.875 0 L 20.75 0 L 20.75 -21.484375 L 15.875 -21.484375 L 15.875 -13.234375 L 7.453125 -13.234375 L 7.453125 -21.484375 L 2.578125 -21.484375 L 2.578125 0 L 7.453125 0 L 7.453125 -8.65625 L 15.875 -8.65625 Z M 15.875 0 "/></g></g></g><g fill="#2f1514" fill-opacity="1"><g transform="translate(201.850223, 54.757632)"><g><path d="M 12.765625 0.4375 C 19.5 0.4375 24.25 -4.171875 24.25 -10.75 C 24.25 -17.3125 19.5 -21.921875 12.765625 -21.921875 C 6.046875 -21.921875 1.3125 -17.3125 1.3125 -10.75 C 1.3125 -4.171875 6.046875 0.4375 12.765625 0.4375 Z M 6.296875 -10.75 C 6.296875 -14.609375 8.96875 -17.28125 12.765625 -17.28125 C 16.609375 -17.28125 19.25 -14.609375 19.25 -10.75 C 19.25 -6.875 16.609375 -4.203125 12.765625 -4.203125 C 8.96875 -4.203125 6.296875 -6.875 6.296875 -10.75 Z M 6.296875 -10.75 "/></g></g></g><g fill="#2f1514" fill-opacity="1"><g transform="translate(227.414366, 54.757632)"><g><path d="M 12.765625 0.4375 C 19.5 0.4375 24.25 -4.171875 24.25 -10.75 C 24.25 -17.3125 19.5 -21.921875 12.765625 -21.921875 C 6.046875 -21.921875 1.3125 -17.3125 1.3125 -10.75 C 1.3125 -4.171875 6.046875 0.4375 12.765625 0.4375 Z M 6.296875 -10.75 C 6.296875 -14.609375 8.96875 -17.28125 12.765625 -17.28125 C 16.609375 -17.28125 19.25 -14.609375 19.25 -10.75 C 19.25 -6.875 16.609375 -4.203125 12.765625 -4.203125 C 8.96875 -4.203125 6.296875 -6.875 6.296875 -10.75 Z M 6.296875 -10.75 "/></g></g></g><g fill="#2f1514" fill-opacity="1"><g transform="translate(252.978509, 54.757632)"><g><path d="M 2.578125 0 L 16.859375 0 L 16.859375 -4.578125 L 7.453125 -4.578125 L 7.453125 -21.484375 L 2.578125 -21.484375 Z M 2.578125 0 "/></g></g></g></svg>