<?xml version="1.0"?>
<svg width="245.25" height="75.749997" xmlns="http://www.w3.org/2000/svg" xmlns:svg="http://www.w3.org/2000/svg" preserveAspectRatio="xMidYMid meet" version="1.0">
 <title>newLogo</title>
 <defs>
  <g id="svg_1"/>
  <clipPath id="4e0c094fdc">
   <path clip-rule="nonzero" d="m0.3,12l31.7,0l0,63l-31.7,0l0,-63zm0,0" id="svg_2"/>
  </clipPath>
  <clipPath id="376fd053e4">
   <path clip-rule="nonzero" d="m31,12l31.13,0l0,29l-31.13,0l0,-29zm0,0" id="svg_3"/>
  </clipPath>
  <clipPath id="30f5e4c85f">
   <path clip-rule="nonzero" d="m10.39,18.85l43.36,0l0,43.36l-43.36,0l0,-43.36zm0,0" id="svg_4"/>
  </clipPath>
 </defs>
 <g class="layer">
  <title>Layer 1</title>
  <path d="m32.14,29.76l4.91,0l0,-4.91l-4.91,0l0,4.91" fill="#004aad" fill-rule="nonzero" id="svg_5"/>
  <path d="m25.37,29.76l4.92,0l0,-4.91l-4.92,0l0,4.91" fill="#004aad" fill-rule="nonzero" id="svg_6"/>
  <path d="m32.14,36.75l4.91,0l0,-4.91l-4.91,0l0,4.91" fill="#004aad" fill-rule="nonzero" id="svg_7"/>
  <path d="m25.37,36.75l4.92,0l0,-4.91l-4.92,0l0,4.91" fill="#004aad" fill-rule="nonzero" id="svg_8"/>
  <g clip-path="url(#4e0c094fdc)" id="svg_9">
   <path d="m3.47,21.18l15.57,-8.98l0,1.77l11.72,0l-23.27,13.43l0,27.4l22.37,12.91c1.77,1.03 2.37,3.29 1.35,5.06c-1.02,1.77 -3.28,2.37 -5.05,1.35l-22.69,-13.1c-2.08,-1.2 -3.38,-3.45 -3.38,-5.86l0,-28.12c0,-2.41 1.3,-4.65 3.38,-5.86" fill="#3fbb0e" fill-rule="nonzero" id="svg_10"/>
  </g>
  <g clip-path="url(#376fd053e4)" id="svg_11">
   <path d="m43.39,13.97l0,-1.77l15.56,8.98c2.09,1.21 3.39,3.45 3.39,5.86l0,9.9c0,2.04 -1.66,3.7 -3.7,3.7c-2.05,0 -3.7,-1.66 -3.7,-3.7l0,-9.54l-23.27,-13.43l11.72,0" fill="#3fbb0e" fill-rule="nonzero" id="svg_12"/>
  </g>
  <path d="m31.21,0l17.5,5.86l-17.5,5.87l-17.49,-5.87l17.49,-5.86" fill="#004aad" fill-rule="nonzero" id="svg_13"/>
  <path d="m20.52,12.49l21.39,0l0,-4.39l-21.39,0l0,4.39" fill="#004aad" fill-rule="nonzero" id="svg_14"/>
  <path d="m16.84,11.35c0.09,-0.27 0.07,-0.58 -0.1,-0.81c-0.05,-0.07 -0.08,-0.15 -0.08,-0.24c0,-0.13 0.06,-0.25 0.15,-0.33l0,-3.29l0.56,0l0,3.29c0.09,0.08 0.15,0.2 0.15,0.33c0,0.09 -0.03,0.17 -0.08,0.24c-0.17,0.23 -0.19,0.54 -0.1,0.81l0.39,1.14l-1.28,0l0.39,-1.14" fill="#004aad" fill-rule="nonzero" id="svg_15"/>
  <g clip-path="url(#30f5e4c85f)" id="svg_16">
   <path d="m32.09,62.24c-11.96,0 -21.7,-9.73 -21.7,-21.69c0,-11.96 9.74,-21.7 21.7,-21.7c11.96,0 21.7,9.74 21.7,21.7c0,11.96 -9.74,21.69 -21.7,21.69zm0,0" fill="#ffffff" fill-rule="nonzero" id="svg_17"/>
  </g>
  <path d="m26.07,46.3c-0.32,0 -0.64,-0.1 -0.92,-0.31l-5.46,-4.18c-0.37,-0.29 -0.59,-0.72 -0.6,-1.19c0,-0.46 0.2,-0.91 0.57,-1.2l5.35,-4.29c0.65,-0.53 1.61,-0.42 2.13,0.23c0.53,0.65 0.42,1.61 -0.23,2.13l-3.84,3.08l3.93,3.01c0.66,0.51 0.79,1.46 0.28,2.13c-0.3,0.39 -0.75,0.59 -1.21,0.59zm0,0" fill="#004aad" fill-rule="nonzero" id="svg_18"/>
  <path d="m38.11,46.3c-0.46,0 -0.91,-0.2 -1.21,-0.59c-0.51,-0.67 -0.38,-1.62 0.28,-2.13l3.93,-3.01l-3.84,-3.08c-0.65,-0.52 -0.76,-1.48 -0.23,-2.13c0.52,-0.65 1.48,-0.76 2.13,-0.23l5.35,4.29c0.36,0.29 0.57,0.74 0.57,1.2c-0.01,0.47 -0.23,0.9 -0.6,1.19l-5.46,4.18c-0.28,0.21 -0.6,0.31 -0.92,0.31zm0,0" fill="#004aad" fill-rule="nonzero" id="svg_19"/>
  <path d="m29.62,49.21c-0.13,0 -0.26,-0.02 -0.39,-0.06c-0.81,-0.22 -1.29,-1.05 -1.07,-1.86l3.87,-14.28c0.22,-0.81 1.05,-1.29 1.86,-1.07c0.81,0.22 1.29,1.05 1.07,1.86l-3.87,14.29c-0.19,0.67 -0.8,1.12 -1.47,1.12zm0,0" fill="#004aad" fill-rule="nonzero" id="svg_20"/>
  <g fill="#004aad" id="svg_21">
   <g id="svg_22" transform="translate(56.076583, 60.622161)">
    <g id="svg_23"/>
   </g>
  </g>
  <g fill="#004aad" id="svg_24">
   <g id="svg_25" transform="translate(62.126927, 60.622161)">
    <g id="svg_26">
     <path d="m10.42,0.36c4.72,0 8.41,-2.88 9.3,-7.25l-4.2,0c-0.75,2.06 -2.66,3.36 -5.02,3.36c-3.06,0 -5.23,-2.24 -5.23,-5.47c0,-3.23 2.18,-5.48 5.25,-5.48c2.29,0 4.17,1.23 4.86,3.21l4.21,0c-1.03,-4.31 -4.62,-7.09 -9.2,-7.09c-5.45,0 -9.28,3.86 -9.28,9.36c0,5.5 3.83,9.36 9.31,9.36zm0,0" id="svg_27"/>
    </g>
   </g>
  </g>
  <g fill="#004aad" id="svg_28">
   <g id="svg_29" transform="translate(82.88277, 60.622161)">
    <g id="svg_30">
     <path d="m7.16,0l4,0l6.92,-18l-4.38,0l-4.51,12.11l-2.17,-5.7l-2.39,-6.41l-4.4,0l6.93,18zm0,0" id="svg_31"/>
    </g>
   </g>
  </g>
  <g fill="#004aad" id="svg_32">
   <g id="svg_33" transform="translate(101.195239, 60.622161)">
    <g id="svg_34">
     <path d="m8.44,0.36c4.26,0 6.89,-2.03 6.89,-5.42c0,-2.86 -1.88,-4.57 -6.36,-5.61c-2.75,-0.64 -3.7,-1.35 -3.7,-2.44c0,-1.19 1.06,-1.91 2.78,-1.91c1.87,0 3.01,0.97 3.01,2.6l3.94,0c0,-3.63 -2.73,-5.94 -7,-5.94c-4.14,0 -6.72,2.03 -6.72,5.31c0,2.94 1.99,4.69 6.2,5.6c2.55,0.53 3.71,1.28 3.71,2.54c0,1.21 -1.08,1.89 -2.78,1.89c-1.99,0 -3.27,-1 -3.27,-2.71l-4.01,0c0,3.73 2.78,6.09 7.31,6.09zm0,0" id="svg_35"/>
    </g>
   </g>
  </g>
  <g fill="#000000" id="svg_40">
   <g id="svg_41" transform="translate(150.008 60.6222)">
    <g id="svg_42">
     <path d="m-18.58,0.36c4.72,0 8.41,-2.88 9.3,-7.25l-4.2,0c-0.75,2.06 -2.66,3.36 -5.02,3.36c-3.06,0 -5.23,-2.24 -5.23,-5.47c0,-3.23 2.18,-5.48 5.25,-5.48c2.29,0 4.17,1.23 4.86,3.21l4.21,0c-1.03,-4.31 -4.62,-7.09 -9.2,-7.09c-5.45,0 -9.28,3.86 -9.28,9.36c0,5.5 3.83,9.36 9.31,9.36zm0,0" id="svg_43"/>
    </g>
   </g>
  </g>
  <g fill="#000000" id="svg_44">
   <g id="svg_45" transform="translate(175.034 60.6222)">
    <g id="svg_46">
     <path d="m-15.7,0l4.09,0l0,-18l-4.09,0l0,6.92l-7.05,0l0,-6.92l-4.09,0l0,18l4.09,0l0,-7.25l7.05,0l0,7.25zm0,0" id="svg_47"/>
    </g>
   </g>
  </g>
  <g fill="#000000" id="svg_48">
   <g id="svg_49" transform="translate(198.851 60.6222)">
    <g id="svg_50">
     <path d="m-18.3,0.36c5.63,0 9.61,-3.86 9.61,-9.36c0,-5.5 -3.98,-9.36 -9.61,-9.36c-5.64,0 -9.59,3.86 -9.59,9.36c0,5.5 3.95,9.36 9.59,9.36zm-5.43,-9.36c0,-3.23 2.25,-5.48 5.43,-5.48c3.21,0 5.43,2.25 5.43,5.48c0,3.23 -2.22,5.47 -5.43,5.47c-3.18,0 -5.43,-2.24 -5.43,-5.47zm0,0" id="svg_51"/>
    </g>
   </g>
  </g>
  <g fill="#000000" id="svg_52">
   <g id="svg_53" transform="translate(224.546 60.6222)">
    <g id="svg_54">
     <path d="m-18.3,0.36c5.63,0 9.61,-3.86 9.61,-9.36c0,-5.5 -3.98,-9.36 -9.61,-9.36c-5.64,0 -9.59,3.86 -9.59,9.36c0,5.5 3.95,9.36 9.59,9.36zm-5.43,-9.36c0,-3.23 2.25,-5.48 5.43,-5.48c3.21,0 5.43,2.25 5.43,5.48c0,3.23 -2.22,5.47 -5.43,5.47c-3.18,0 -5.43,-2.24 -5.43,-5.47zm0,0" id="svg_55"/>
    </g>
   </g>
  </g>
  <g fill="#000000" id="svg_56">
   <g id="svg_57" transform="translate(250.241 60.6222)">
    <g id="svg_58">
     <path d="m-26.84,0l11.97,0l0,-3.83l-7.88,0l0,-14.17l-4.09,0l0,18zm0,0" id="svg_59"/>
    </g>
   </g>
  </g>
 </g>
</svg>