<svg xmlns="http://www.w3.org/2000/svg" xmlns:xlink="http://www.w3.org/1999/xlink" width="500" zoomAndPan="magnify" viewBox="0 0 375 374.999991" height="500" preserveAspectRatio="xMidYMid meet" version="1.0"><defs><clipPath id="387c236ad5"><path d="M 40.648438 67 L 190 67 L 190 363 L 40.648438 363 Z M 40.648438 67 " clip-rule="nonzero"/></clipPath><clipPath id="76324c0cd7"><path d="M 189 67 L 334.34375 67 L 334.34375 202 L 189 202 Z M 189 67 " clip-rule="nonzero"/></clipPath><clipPath id="46e25bb9d0"><path d="M 104 9.933594 L 271 9.933594 L 271 66 L 104 66 Z M 104 9.933594 " clip-rule="nonzero"/></clipPath><clipPath id="1a853ac4d1"><path d="M 142 150 L 277.855469 150 L 277.855469 286.472656 L 142 286.472656 Z M 142 150 " clip-rule="nonzero"/></clipPath><clipPath id="a5af6bc93f"><path d="M 214 214 L 277.855469 214 L 277.855469 286 L 214 286 Z M 214 214 " clip-rule="nonzero"/></clipPath><clipPath id="daf8390c03"><path d="M 110 103.472656 L 230 103.472656 L 230 159 L 110 159 Z M 110 103.472656 " clip-rule="nonzero"/></clipPath><clipPath id="75dea2b7f1"><path d="M 109.105469 191 L 129 191 L 129 214 L 109.105469 214 Z M 109.105469 191 " clip-rule="nonzero"/></clipPath></defs><path fill="#ffffff" d="M 191.882812 150.601562 L 215.113281 150.601562 L 215.113281 127.378906 L 191.882812 127.378906 L 191.882812 150.601562 " fill-opacity="1" fill-rule="nonzero"/><path fill="#ffffff" d="M 159.878906 150.601562 L 183.109375 150.601562 L 183.109375 127.378906 L 159.878906 127.378906 L 159.878906 150.601562 " fill-opacity="1" fill-rule="nonzero"/><path fill="#ffffff" d="M 191.882812 183.640625 L 215.113281 183.640625 L 215.113281 160.410156 L 191.882812 160.410156 L 191.882812 183.640625 " fill-opacity="1" fill-rule="nonzero"/><path fill="#ffffff" d="M 159.878906 183.640625 L 183.109375 183.640625 L 183.109375 160.410156 L 159.878906 160.410156 L 159.878906 183.640625 " fill-opacity="1" fill-rule="nonzero"/><g clip-path="url(#387c236ad5)"><path fill="#3fbb0e" d="M 56.390625 110.042969 L 129.941406 67.578125 L 129.941406 75.957031 L 185.34375 75.957031 L 75.363281 139.453125 L 75.363281 268.929688 L 181.097656 329.976562 C 189.457031 334.800781 192.320312 345.492188 187.496094 353.855469 C 182.667969 362.214844 171.980469 365.078125 163.617188 360.25 L 56.390625 298.339844 C 46.53125 292.648438 40.40625 282.042969 40.40625 270.65625 L 40.40625 137.726562 C 40.40625 126.339844 46.53125 115.734375 56.390625 110.042969 " fill-opacity="1" fill-rule="nonzero"/></g><g clip-path="url(#76324c0cd7)"><path fill="#3fbb0e" d="M 245.050781 75.957031 L 245.050781 67.578125 L 318.601562 110.042969 C 328.460938 115.734375 334.582031 126.339844 334.582031 137.726562 L 334.582031 184.515625 C 334.582031 194.167969 326.757812 201.996094 317.105469 201.996094 C 307.453125 201.996094 299.625 194.167969 299.625 184.515625 L 299.625 139.453125 L 189.648438 75.957031 L 245.050781 75.957031 " fill-opacity="1" fill-rule="nonzero"/></g><g clip-path="url(#46e25bb9d0)"><path fill="#89cff0" d="M 187.496094 9.945312 L 270.175781 37.652344 L 187.496094 65.355469 L 104.816406 37.652344 L 187.496094 9.945312 " fill-opacity="1" fill-rule="nonzero"/></g><path fill="#89cff0" d="M 136.933594 68.964844 L 238.058594 68.964844 L 238.058594 48.234375 L 136.933594 48.234375 L 136.933594 68.964844 " fill-opacity="1" fill-rule="nonzero"/><path fill="#89cff0" d="M 119.542969 63.558594 C 119.972656 62.292969 119.875 60.855469 119.097656 59.769531 C 118.859375 59.441406 118.722656 59.035156 118.722656 58.601562 C 118.722656 57.988281 118.996094 57.449219 119.421875 57.078125 L 119.421875 41.527344 L 122.074219 41.527344 L 122.074219 57.078125 C 122.5 57.449219 122.773438 57.988281 122.773438 58.601562 C 122.773438 59.035156 122.632812 59.441406 122.398438 59.769531 C 121.617188 60.855469 121.519531 62.292969 121.953125 63.558594 L 123.789062 68.964844 L 117.703125 68.964844 L 119.542969 63.558594 " fill-opacity="1" fill-rule="nonzero"/><g clip-path="url(#1a853ac4d1)"><path fill="#b9d8f2" d="M 277.867188 218.359375 C 277.867188 255.921875 247.46875 286.371094 209.96875 286.371094 C 172.472656 286.371094 142.070312 255.921875 142.070312 218.359375 C 142.070312 180.796875 172.472656 150.347656 209.96875 150.347656 C 247.46875 150.347656 277.867188 180.796875 277.867188 218.359375 " fill-opacity="1" fill-rule="nonzero"/></g><path fill="#6ec399" d="M 169.167969 272.539062 C 169.246094 272.589844 169.328125 272.636719 169.40625 272.679688 C 171.992188 268.226562 179.699219 262.460938 175.386719 256.605469 C 174.128906 254.894531 172.078125 254.019531 170.1875 253.070312 C 163.59375 249.785156 157.558594 244.503906 155.453125 237.4375 C 153.355469 230.375 156.398438 221.546875 163.277344 218.929688 C 167.910156 217.175781 173.503906 218.308594 177.644531 215.585938 C 182.792969 212.203125 183.058594 204.863281 185.902344 199.382812 C 186.492188 198.25 187.253906 197.136719 188.386719 196.546875 C 189.851562 195.792969 191.601562 196.054688 193.246094 196.226562 C 198.984375 196.816406 204.875 195.90625 210.175781 193.617188 C 212.660156 192.550781 215.40625 190.320312 214.644531 187.726562 C 214.34375 186.683594 202.570312 182.578125 192.910156 178.710938 C 180.550781 173.757812 180.679688 167.109375 182.914062 155.972656 C 158.875 166.4375 142.070312 190.433594 142.070312 218.359375 C 142.070312 238.140625 151.667969 261.820312 169.167969 272.539062 " fill-opacity="1" fill-rule="nonzero"/><g clip-path="url(#a5af6bc93f)"><path fill="#6ec399" d="M 257.75 216.878906 C 253.507812 215.429688 248.835938 213.921875 244.289062 214.546875 C 242.15625 214.839844 239.4375 215.75 237.894531 217.3125 C 236.546875 218.664062 236.804688 220.382812 237.261719 222.09375 C 238.449219 226.582031 241.101562 230.582031 241.804688 235.210938 C 242.574219 240.207031 240.746094 244.902344 237.453125 248.625 C 230.820312 256.121094 218.230469 258.628906 215.398438 269.253906 C 213.96875 274.65625 215.382812 280.433594 217.695312 285.929688 C 250.007812 282.265625 275.449219 255.878906 277.699219 223.097656 C 270.882812 222.058594 264.128906 219.050781 257.75 216.878906 " fill-opacity="1" fill-rule="nonzero"/></g><path fill="#ffffff" d="M 262.175781 179.578125 C 266.683594 185.082031 268 191.464844 265.113281 193.839844 C 262.230469 196.210938 256.234375 193.667969 251.722656 188.167969 C 247.21875 182.65625 245.902344 176.273438 248.785156 173.898438 C 251.671875 171.535156 257.664062 174.070312 262.175781 179.578125 " fill-opacity="1" fill-rule="nonzero"/><path fill="#ed547c" d="M 229.742188 153.769531 L 194.851562 186.300781 C 194.851562 186.300781 181.425781 187.617188 165.546875 189.34375 C 151.570312 190.859375 147.457031 191.214844 147.457031 191.214844 L 129.167969 150.890625 L 211.449219 113.441406 L 229.742188 153.769531 " fill-opacity="1" fill-rule="nonzero"/><g clip-path="url(#daf8390c03)"><path fill="#496592" d="M 163.492188 116.601562 L 228.039062 103.734375 C 229.015625 103.539062 229.605469 104.785156 228.828125 105.410156 L 177.414062 147.128906 C 177.285156 147.234375 177.136719 147.304688 176.980469 147.328125 L 111.332031 158.894531 C 110.347656 159.0625 109.792969 157.800781 110.585938 157.195312 L 163.09375 116.777344 C 163.214844 116.683594 163.351562 116.628906 163.492188 116.601562 " fill-opacity="1" fill-rule="nonzero"/></g><path stroke-linecap="round" transform="matrix(0.0711425, 0, 0, -0.0712604, 42.230164, 346.542721)" fill="none" stroke-linejoin="round" d="M 1067.184707 2679.486632 L 1075.420819 2160.811986 " stroke="#496592" stroke-width="50" stroke-opacity="1" stroke-miterlimit="10"/><g clip-path="url(#75dea2b7f1)"><path fill="#f8dd4e" d="M 118.957031 213.472656 L 109.089844 213.628906 L 113.84375 202.320312 L 118.601562 191.011719 L 128.816406 213.3125 L 118.957031 213.472656 " fill-opacity="1" fill-rule="nonzero"/></g><path fill="#ed547c" d="M 123.523438 191.984375 C 123.558594 194.507812 121.554688 196.582031 119.035156 196.617188 C 116.523438 196.660156 114.453125 194.652344 114.410156 192.136719 C 114.375 189.613281 116.382812 187.539062 118.894531 187.496094 C 121.410156 187.453125 123.480469 189.464844 123.523438 191.984375 " fill-opacity="1" fill-rule="nonzero"/></svg>