<svg xmlns="http://www.w3.org/2000/svg" xmlns:xlink="http://www.w3.org/1999/xlink" width="500" zoomAndPan="magnify" viewBox="0 0 375 374.999991" height="500" preserveAspectRatio="xMidYMid meet" version="1.0"><defs><clipPath id="8b980def76"><path d="M 22 307 L 57 307 L 57 364.34375 L 22 364.34375 Z M 22 307 " clip-rule="nonzero"/></clipPath><clipPath id="8ea31450ed"><path d="M 318 307 L 353 307 L 353 364.34375 L 318 364.34375 Z M 318 307 " clip-rule="nonzero"/></clipPath><clipPath id="77112470ef"><path d="M 81 10.34375 L 294 10.34375 L 294 126 L 81 126 Z M 81 10.34375 " clip-rule="nonzero"/></clipPath><clipPath id="0180747b86"><path d="M 9.675781 275 L 365.175781 275 L 365.175781 313 L 9.675781 313 Z M 9.675781 275 " clip-rule="nonzero"/></clipPath></defs><path fill="#6bdddd" d="M 247.011719 160.609375 C 247.011719 127.277344 219.980469 100.257812 186.632812 100.257812 C 153.285156 100.257812 126.253906 127.277344 126.253906 160.609375 C 126.253906 191.148438 148.953125 216.371094 178.402344 220.386719 L 185.273438 233.160156 C 185.820312 234.179688 187.285156 234.179688 187.832031 233.160156 L 194.6875 220.410156 C 224.222656 216.46875 247.011719 191.207031 247.011719 160.609375 Z M 247.011719 160.609375 " fill-opacity="1" fill-rule="nonzero"/><path fill="#6bdddd" d="M 247.011719 160.609375 C 247.011719 127.277344 219.980469 100.257812 186.632812 100.257812 C 153.285156 100.257812 126.253906 127.277344 126.253906 160.609375 C 126.253906 191.148438 148.953125 216.371094 178.402344 220.386719 L 185.273438 233.160156 C 185.820312 234.179688 187.285156 234.179688 187.832031 233.160156 L 194.6875 220.410156 C 224.222656 216.46875 247.011719 191.207031 247.011719 160.609375 Z M 247.011719 160.609375 " fill-opacity="1" fill-rule="nonzero"/><path fill="#3762cc" d="M 186.550781 236.722656 C 184.984375 236.722656 183.550781 235.867188 182.804688 234.484375 L 176.601562 222.949219 C 146.203125 218.09375 123.453125 191.542969 123.453125 160.605469 C 123.453125 125.789062 151.796875 97.457031 186.632812 97.457031 C 221.46875 97.457031 249.8125 125.789062 249.8125 160.605469 C 249.8125 191.636719 226.984375 218.195312 196.484375 222.972656 L 190.296875 234.484375 C 189.554688 235.863281 188.121094 236.71875 186.550781 236.722656 Z M 186.636719 103.054688 C 154.886719 103.054688 129.054688 128.875 129.054688 160.609375 C 129.054688 189.242188 150.433594 213.75 178.78125 217.613281 C 179.667969 217.734375 180.445312 218.273438 180.867188 219.0625 L 186.550781 229.628906 L 192.222656 219.082031 C 192.648438 218.292969 193.429688 217.753906 194.320312 217.636719 C 222.765625 213.84375 244.214844 189.328125 244.214844 160.609375 C 244.214844 128.875 218.382812 103.054688 186.636719 103.054688 Z M 186.636719 103.054688 " fill-opacity="1" fill-rule="nonzero"/><path fill="#a4c9ff" d="M 25.375 309.925781 L 53.367188 309.925781 L 53.367188 361.339844 L 25.375 361.339844 Z M 25.375 309.925781 " fill-opacity="1" fill-rule="nonzero"/><path fill="#a4c9ff" d="M 321.484375 309.925781 L 349.476562 309.925781 L 349.476562 361.339844 L 321.484375 361.339844 Z M 321.484375 309.925781 " fill-opacity="1" fill-rule="nonzero"/><g clip-path="url(#8b980def76)"><path fill="#3762cc" d="M 53.367188 364.136719 L 25.375 364.136719 C 23.832031 364.136719 22.578125 362.882812 22.578125 361.339844 L 22.578125 309.925781 C 22.578125 308.382812 23.832031 307.128906 25.375 307.128906 L 53.367188 307.128906 C 54.914062 307.128906 56.167969 308.382812 56.167969 309.925781 L 56.167969 361.339844 C 56.167969 362.882812 54.914062 364.136719 53.367188 364.136719 Z M 28.175781 358.539062 L 50.570312 358.539062 L 50.570312 312.722656 L 28.175781 312.722656 Z M 28.175781 358.539062 " fill-opacity="1" fill-rule="nonzero"/></g><g clip-path="url(#8ea31450ed)"><path fill="#3762cc" d="M 349.476562 364.136719 L 321.484375 364.136719 C 319.9375 364.136719 318.683594 362.882812 318.683594 361.339844 L 318.683594 309.925781 C 318.683594 308.382812 319.9375 307.128906 321.484375 307.128906 L 349.476562 307.128906 C 351.019531 307.128906 352.273438 308.382812 352.273438 309.925781 L 352.273438 361.339844 C 352.273438 362.882812 351.023438 364.136719 349.476562 364.136719 Z M 324.28125 358.539062 L 346.675781 358.539062 L 346.675781 312.722656 L 324.28125 312.722656 Z M 324.28125 358.539062 " fill-opacity="1" fill-rule="nonzero"/></g><path fill="#a4c9ff" d="M 359.578125 309.925781 L 15.273438 309.925781 C 13.726562 309.925781 12.476562 308.671875 12.476562 307.128906 L 12.476562 280.722656 C 12.476562 279.175781 13.726562 277.925781 15.273438 277.925781 L 359.578125 277.925781 C 361.125 277.925781 362.375 279.175781 362.375 280.722656 L 362.375 307.128906 C 362.375 308.671875 361.125 309.925781 359.578125 309.925781 Z M 359.578125 309.925781 " fill-opacity="1" fill-rule="nonzero"/><path fill="#3762cc" d="M 91.214844 155.75 C 89.667969 155.75 88.414062 154.496094 88.414062 152.953125 L 88.414062 116.683594 C 88.414062 62.113281 132.832031 17.71875 187.425781 17.71875 C 242.019531 17.71875 286.4375 62.113281 286.4375 116.683594 L 286.4375 150.15625 C 286.4375 151.699219 285.183594 152.953125 283.636719 152.953125 C 282.09375 152.953125 280.839844 151.699219 280.839844 150.15625 L 280.839844 116.683594 C 280.839844 65.199219 238.933594 23.316406 187.425781 23.316406 C 135.917969 23.316406 94.011719 65.199219 94.011719 116.683594 L 94.011719 152.953125 C 94.011719 154.496094 92.761719 155.75 91.214844 155.75 Z M 91.214844 155.75 " fill-opacity="1" fill-rule="nonzero"/><path fill="#3762cc" d="M 265.328125 255.753906 L 187.425781 255.753906 C 185.878906 255.753906 184.625 254.5 184.625 252.957031 C 184.625 251.414062 185.878906 250.160156 187.425781 250.160156 L 265.328125 250.160156 C 273.824219 250.160156 280.738281 243.25 280.738281 234.753906 L 280.738281 194.664062 C 280.738281 193.121094 281.992188 191.867188 283.535156 191.867188 C 285.082031 191.867188 286.335938 193.121094 286.335938 194.664062 L 286.335938 234.753906 C 286.335938 246.335938 276.914062 255.753906 265.328125 255.753906 Z M 265.328125 255.753906 " fill-opacity="1" fill-rule="nonzero"/><path fill="#f9a7a7" d="M 287.027344 142.847656 L 282.761719 142.847656 L 282.761719 214.773438 L 287.027344 214.773438 C 298.589844 214.773438 307.964844 205.402344 307.964844 193.84375 L 307.964844 163.777344 C 307.964844 152.21875 298.589844 142.847656 287.027344 142.847656 Z M 287.027344 142.847656 " fill-opacity="1" fill-rule="nonzero"/><path fill="#3762cc" d="M 287.027344 217.570312 L 282.761719 217.570312 C 281.214844 217.570312 279.960938 216.316406 279.960938 214.773438 L 279.960938 142.847656 C 279.960938 141.304688 281.214844 140.050781 282.761719 140.050781 L 287.027344 140.050781 C 300.117188 140.050781 310.761719 150.691406 310.761719 163.777344 L 310.761719 193.84375 C 310.761719 206.929688 300.117188 217.570312 287.027344 217.570312 Z M 285.5625 211.976562 L 287.027344 211.976562 C 297.027344 211.976562 305.164062 203.84375 305.164062 193.847656 L 305.164062 163.777344 C 305.164062 153.78125 297.027344 145.648438 287.027344 145.648438 L 285.5625 145.648438 Z M 285.5625 211.976562 " fill-opacity="1" fill-rule="nonzero"/><path fill="#f9a7a7" d="M 87.824219 214.773438 L 92.089844 214.773438 L 92.089844 142.847656 L 87.824219 142.847656 C 76.261719 142.847656 66.886719 152.21875 66.886719 163.777344 L 66.886719 193.847656 C 66.886719 205.402344 76.261719 214.773438 87.824219 214.773438 Z M 87.824219 214.773438 " fill-opacity="1" fill-rule="nonzero"/><path fill="#3762cc" d="M 92.089844 217.570312 L 87.824219 217.570312 C 74.738281 217.570312 64.089844 206.929688 64.089844 193.847656 L 64.089844 163.777344 C 64.089844 150.695312 74.738281 140.050781 87.824219 140.050781 L 92.089844 140.050781 C 93.636719 140.050781 94.890625 141.304688 94.890625 142.851562 L 94.890625 214.773438 C 94.890625 216.316406 93.636719 217.570312 92.089844 217.570312 Z M 87.824219 145.648438 C 77.824219 145.648438 69.6875 153.777344 69.6875 163.777344 L 69.6875 193.84375 C 69.6875 203.84375 77.824219 211.972656 87.824219 211.972656 L 89.292969 211.972656 L 89.292969 145.648438 Z M 87.824219 145.648438 " fill-opacity="1" fill-rule="nonzero"/><path fill="#4671c6" d="M 264.285156 136.957031 L 275.09375 136.957031 C 279.8125 136.957031 283.636719 140.78125 283.636719 145.496094 L 283.636719 211.53125 C 283.636719 216.246094 279.8125 220.070312 275.09375 220.070312 L 264.285156 220.070312 C 261.136719 220.070312 258.585938 217.519531 258.585938 214.375 L 258.585938 142.652344 C 258.585938 139.507812 261.136719 136.957031 264.285156 136.957031 Z M 264.285156 136.957031 " fill-opacity="1" fill-rule="nonzero"/><path fill="#3762cc" d="M 275.09375 222.871094 L 264.285156 222.871094 C 259.597656 222.871094 255.789062 219.0625 255.789062 214.378906 L 255.789062 142.652344 C 255.789062 137.96875 259.597656 134.160156 264.285156 134.160156 L 275.09375 134.160156 C 281.347656 134.160156 286.4375 139.246094 286.4375 145.496094 L 286.4375 211.53125 C 286.4375 217.785156 281.347656 222.871094 275.09375 222.871094 Z M 264.285156 139.757812 C 262.6875 139.757812 261.386719 141.054688 261.386719 142.652344 L 261.386719 214.378906 C 261.386719 215.972656 262.6875 217.273438 264.285156 217.273438 L 275.09375 217.273438 C 278.261719 217.273438 280.835938 214.699219 280.835938 211.53125 L 280.835938 145.5 C 280.835938 142.332031 278.261719 139.757812 275.09375 139.757812 Z M 264.285156 139.757812 " fill-opacity="1" fill-rule="nonzero"/><path fill="#4671c6" d="M 110.566406 220.367188 L 99.757812 220.367188 C 95.039062 220.367188 91.214844 216.542969 91.214844 211.828125 L 91.214844 145.792969 C 91.214844 141.078125 95.039062 137.253906 99.757812 137.253906 L 110.566406 137.253906 C 113.714844 137.253906 116.265625 139.804688 116.265625 142.949219 L 116.265625 214.675781 C 116.265625 217.820312 113.714844 220.367188 110.566406 220.367188 Z M 110.566406 220.367188 " fill-opacity="1" fill-rule="nonzero"/><path fill="#3762cc" d="M 110.566406 223.164062 L 99.757812 223.164062 C 93.503906 223.164062 88.417969 218.078125 88.417969 211.828125 L 88.417969 145.792969 C 88.417969 139.542969 93.503906 134.457031 99.757812 134.457031 L 110.566406 134.457031 C 115.253906 134.457031 119.0625 138.265625 119.0625 142.949219 L 119.0625 214.675781 C 119.0625 219.355469 115.253906 223.164062 110.566406 223.164062 Z M 99.757812 140.050781 C 96.589844 140.050781 94.015625 142.628906 94.015625 145.792969 L 94.015625 211.828125 C 94.015625 214.992188 96.589844 217.570312 99.757812 217.570312 L 110.566406 217.570312 C 112.164062 217.570312 113.464844 216.269531 113.464844 214.671875 L 113.464844 142.949219 C 113.464844 141.351562 112.164062 140.050781 110.566406 140.050781 Z M 99.757812 140.050781 " fill-opacity="1" fill-rule="nonzero"/><path fill="#f9a7a7" d="M 196.136719 262.535156 L 176.972656 262.535156 C 173.121094 262.535156 170 259.417969 170 255.570312 L 170 250.34375 C 170 246.496094 173.121094 243.378906 176.972656 243.378906 L 196.140625 243.378906 C 199.992188 243.378906 203.109375 246.496094 203.109375 250.34375 L 203.109375 255.570312 C 203.109375 259.417969 199.988281 262.535156 196.136719 262.535156 Z M 196.136719 262.535156 " fill-opacity="1" fill-rule="nonzero"/><path fill="#3762cc" d="M 196.140625 265.335938 L 176.972656 265.335938 C 171.582031 265.335938 167.203125 260.953125 167.203125 255.570312 L 167.203125 250.34375 C 167.203125 244.960938 171.582031 240.582031 176.972656 240.582031 L 196.140625 240.582031 C 201.527344 240.582031 205.910156 244.960938 205.910156 250.34375 L 205.910156 255.570312 C 205.910156 260.953125 201.527344 265.335938 196.140625 265.335938 Z M 176.96875 246.175781 C 174.671875 246.175781 172.796875 248.046875 172.796875 250.34375 L 172.796875 255.570312 C 172.796875 257.867188 174.671875 259.738281 176.96875 259.738281 L 196.136719 259.738281 C 198.4375 259.738281 200.308594 257.867188 200.308594 255.570312 L 200.308594 250.34375 C 200.308594 248.046875 198.4375 246.175781 196.136719 246.175781 Z M 176.96875 246.175781 " fill-opacity="1" fill-rule="nonzero"/><path fill="#3762cc" d="M 182.457031 179.828125 L 165.910156 179.828125 C 164.363281 179.828125 163.109375 178.574219 163.109375 177.03125 L 163.109375 146.308594 C 163.109375 144.765625 164.363281 143.511719 165.910156 143.511719 L 182.457031 143.511719 C 184.003906 143.511719 185.257812 144.765625 185.257812 146.308594 C 185.257812 147.851562 184.003906 149.105469 182.457031 149.105469 L 168.707031 149.105469 L 168.707031 174.230469 L 182.457031 174.230469 C 184.003906 174.230469 185.257812 175.484375 185.257812 177.027344 C 185.257812 178.574219 184.003906 179.828125 182.457031 179.828125 Z M 182.457031 179.828125 " fill-opacity="1" fill-rule="nonzero"/><path fill="#3762cc" d="M 176.546875 160.921875 L 165.910156 160.921875 C 164.363281 160.921875 163.109375 159.667969 163.109375 158.125 C 163.109375 156.578125 164.363281 155.328125 165.910156 155.328125 L 176.546875 155.328125 C 178.09375 155.328125 179.347656 156.578125 179.347656 158.125 C 179.347656 159.667969 178.09375 160.921875 176.546875 160.921875 Z M 176.546875 160.921875 " fill-opacity="1" fill-rule="nonzero"/><path fill="#3762cc" d="M 155.910156 179.828125 C 154.363281 179.828125 153.109375 178.574219 153.109375 177.03125 L 153.109375 146.308594 C 153.109375 144.765625 154.363281 143.511719 155.910156 143.511719 C 157.453125 143.511719 158.707031 144.765625 158.707031 146.308594 L 158.707031 177.027344 C 158.707031 178.574219 157.453125 179.828125 155.910156 179.828125 Z M 155.910156 179.828125 " fill-opacity="1" fill-rule="nonzero"/><path fill="#3762cc" d="M 139.359375 179.828125 C 137.816406 179.828125 136.5625 178.574219 136.5625 177.03125 L 136.5625 146.308594 C 136.5625 144.765625 137.816406 143.511719 139.359375 143.511719 C 140.90625 143.511719 142.160156 144.765625 142.160156 146.308594 L 142.160156 177.027344 C 142.160156 178.574219 140.90625 179.828125 139.359375 179.828125 Z M 139.359375 179.828125 " fill-opacity="1" fill-rule="nonzero"/><path fill="#3762cc" d="M 155.910156 160.921875 L 139.359375 160.921875 C 137.816406 160.921875 136.5625 159.667969 136.5625 158.125 C 136.5625 156.578125 137.816406 155.328125 139.359375 155.328125 L 155.910156 155.328125 C 157.453125 155.328125 158.707031 156.578125 158.707031 158.125 C 158.707031 159.667969 157.453125 160.921875 155.910156 160.921875 Z M 155.910156 160.921875 " fill-opacity="1" fill-rule="nonzero"/><path fill="#3762cc" d="M 209.003906 179.828125 L 195.410156 179.828125 C 192.238281 179.828125 189.65625 177.246094 189.65625 174.078125 L 189.65625 146.308594 C 189.65625 144.765625 190.910156 143.511719 192.453125 143.511719 C 194 143.511719 195.253906 144.765625 195.253906 146.308594 L 195.253906 174.074219 C 195.253906 174.160156 195.324219 174.230469 195.410156 174.230469 L 209.003906 174.230469 C 210.550781 174.230469 211.804688 175.484375 211.804688 177.027344 C 211.804688 178.574219 210.550781 179.828125 209.003906 179.828125 Z M 209.003906 179.828125 " fill-opacity="1" fill-rule="nonzero"/><path fill="#3762cc" d="M 219.003906 179.828125 C 217.457031 179.828125 216.203125 178.574219 216.203125 177.03125 L 216.203125 146.308594 C 216.203125 144.765625 217.457031 143.511719 219.003906 143.511719 L 229.640625 143.511719 C 234.445312 143.511719 238.351562 147.417969 238.351562 152.214844 C 238.351562 157.015625 234.441406 160.921875 229.640625 160.921875 L 221.800781 160.921875 L 221.800781 177.03125 C 221.800781 178.574219 220.550781 179.828125 219.003906 179.828125 Z M 221.800781 155.328125 L 229.640625 155.328125 C 231.355469 155.328125 232.753906 153.929688 232.753906 152.214844 C 232.753906 150.5 231.355469 149.105469 229.640625 149.105469 L 221.800781 149.105469 Z M 221.800781 155.328125 " fill-opacity="1" fill-rule="nonzero"/><path fill="#4671c6" d="M 186.40625 13.527344 C 129.589844 14.078125 84.214844 61.203125 84.214844 118 L 84.214844 118.039062 C 84.214844 120.578125 86.277344 122.640625 88.824219 122.640625 L 93.605469 122.640625 C 96.148438 122.640625 98.210938 120.582031 98.210938 118.039062 C 98.210938 69.101562 137.089844 28.269531 186.039062 27.523438 C 235.863281 26.761719 276.636719 67.050781 276.636719 116.683594 C 276.636719 119.972656 279.308594 122.640625 282.597656 122.640625 L 284.671875 122.640625 C 287.964844 122.640625 290.632812 119.972656 290.632812 116.683594 C 290.636719 59.460938 243.78125 12.972656 186.40625 13.527344 Z M 186.40625 13.527344 " fill-opacity="1" fill-rule="nonzero"/><g clip-path="url(#77112470ef)"><path fill="#3762cc" d="M 284.675781 125.4375 L 282.597656 125.4375 C 277.769531 125.4375 273.839844 121.511719 273.839844 116.683594 C 273.839844 93.402344 264.675781 71.554688 248.027344 55.167969 C 231.390625 38.789062 209.394531 29.957031 186.082031 30.320312 C 139.175781 31.035156 101.011719 70.382812 101.011719 118.039062 C 101.011719 122.117188 97.691406 125.4375 93.609375 125.4375 L 88.824219 125.4375 C 84.742188 125.4375 81.417969 122.117188 81.417969 118.039062 C 81.417969 59.414062 128.503906 11.292969 186.378906 10.730469 C 214.855469 10.410156 241.707031 21.355469 261.984375 41.425781 C 282.265625 61.503906 293.433594 88.230469 293.433594 116.683594 C 293.433594 121.511719 289.503906 125.4375 284.675781 125.4375 Z M 187.4375 24.714844 C 211.722656 24.714844 234.585938 34.082031 251.957031 51.183594 C 269.679688 68.628906 279.4375 91.890625 279.4375 116.683594 C 279.4375 118.425781 280.855469 119.84375 282.597656 119.84375 L 284.675781 119.84375 C 286.417969 119.84375 287.835938 118.425781 287.835938 116.683594 C 287.835938 89.734375 277.253906 64.421875 258.042969 45.40625 C 238.835938 26.390625 213.359375 16.046875 186.433594 16.324219 C 131.613281 16.859375 87.015625 62.46875 87.015625 118 C 87.015625 119.035156 87.824219 119.84375 88.824219 119.84375 L 93.605469 119.84375 C 94.601562 119.84375 95.414062 119.035156 95.414062 118.039062 C 95.414062 67.347656 136.050781 25.488281 186 24.726562 C 186.476562 24.71875 186.960938 24.714844 187.4375 24.714844 Z M 187.4375 24.714844 " fill-opacity="1" fill-rule="nonzero"/></g><g clip-path="url(#0180747b86)"><path fill="#3762cc" d="M 359.578125 312.722656 L 15.273438 312.722656 C 12.1875 312.722656 9.675781 310.214844 9.675781 307.128906 L 9.675781 280.722656 C 9.675781 277.636719 12.1875 275.128906 15.273438 275.128906 L 359.578125 275.128906 C 362.664062 275.128906 365.175781 277.636719 365.175781 280.722656 L 365.175781 307.128906 C 365.175781 310.214844 362.664062 312.722656 359.578125 312.722656 Z M 15.273438 280.722656 L 15.273438 307.128906 L 359.582031 307.128906 L 359.578125 280.722656 Z M 15.273438 280.722656 " fill-opacity="1" fill-rule="nonzero"/></g></svg>