<svg id="visual" viewBox="0 0 960 540" width="960" height="540" xmlns="http://www.w3.org/2000/svg" xmlns:xlink="http://www.w3.org/1999/xlink" version="1.1"><path d="M0 501L192 496L384 500L576 502L768 504L960 495L960 541L768 541L576 541L384 541L192 541L0 541Z" fill="#05b3b3"></path><path d="M0 511L192 504L384 514L576 509L768 510L960 505L960 541L768 541L576 541L384 541L192 541L0 541Z" fill="#069292"></path><path d="M0 517L192 523L384 517L576 521L768 523L960 517L960 541L768 541L576 541L384 541L192 541L0 541Z" fill="#067272"></path><path d="M0 529L192 524L384 525L576 531L768 531L960 530L960 541L768 541L576 541L384 541L192 541L0 541Z" fill="#055454"></path></svg>